AdventPro-bld_wd.ufo
<glyph name="numbersign" format="1">
  <advance width="895" height="962"/>
  <unicode hex="0023"/>
  <outline>
    <contour>
      <point x="655" y="270" type="line"/>
      <point x="860" y="270" type="line"/>
      <point x="860" y="167" type="line"/>
      <point x="617" y="167" type="line"/>
      <point x="559" y="0" type="line"/>
      <point x="439" y="0" type="line"/>
      <point x="496" y="167" type="line"/>
      <point x="282" y="167" type="line"/>
      <point x="223" y="0" type="line"/>
      <point x="101" y="0" type="line"/>
      <point x="163" y="167" type="line"/>
      <point x="34" y="167" type="line"/>
      <point x="34" y="270" type="line"/>
      <point x="199" y="270" type="line"/>
      <point x="230" y="357" type="line"/>
      <point x="34" y="357" type="line"/>
      <point x="34" y="471" type="line"/>
      <point x="271" y="471" type="line"/>
      <point x="350" y="700" type="line"/>
      <point x="471" y="700" type="line"/>
      <point x="390" y="471" type="line"/>
      <point x="604" y="471" type="line"/>
      <point x="685" y="700" type="line"/>
      <point x="807" y="700" type="line"/>
      <point x="725" y="471" type="line"/>
      <point x="860" y="471" type="line"/>
      <point x="860" y="357" type="line"/>
      <point x="685" y="357" type="line"/>
    </contour>
    <contour>
      <point x="533" y="270" type="line"/>
      <point x="565" y="357" type="line"/>
      <point x="350" y="357" type="line"/>
      <point x="319" y="270" type="line"/>
    </contour>
  </outline>
</glyph>
<glyph name="quotesingle" format="2">
  <advance width="149" height="962"/>
  <unicode hex="0027"/>
  <outline>
    <contour>
      <point x="28" y="696" type="line"/>
      <point x="28" y="753"/>
      <point x="119" y="753"/>
      <point x="119" y="696" type="curve"/>
      <point x="105" y="589" type="line"/>
      <point x="42" y="589" type="line"/>
    </contour>
  </outline>
</glyph>
<glyph name="parenleft" format="1">
  <advance width="362" height="962"/>
  <unicode hex="0028"/>
  <outline>
    <contour>
      <point x="323" y="731" type="line"/>
      <point x="323" y="731"/>
      <point x="224" y="704"/>
      <point x="225" y="608" type="curve"/>
      <point x="225" y="323"/>
      <point x="225" y="185"/>
      <point x="225" y="104" type="curve"/>
      <point x="224" y="-1"/>
      <point x="326" y="-35"/>
      <point x="324" y="-35" type="curve"/>
      <point x="242" y="-117" type="line"/>
      <point x="93" y="-60"/>
      <point x="60" y="13"/>
      <point x="60" y="95" type="curve" smooth="yes"/>
      <point x="60" y="606" type="line" smooth="yes"/>
      <point x="60" y="685"/>
      <point x="102" y="767"/>
      <point x="240" y="819" type="curve"/>
    </contour>
  </outline>
</glyph>
<glyph name="parenright" format="2">
  <advance width="318"/>
  <unicode hex="0029"/>
  <outline>
    <contour>
      <point x="30" y="741" type="line"/>
      <point x="52.4" y="728.301"/>
      <point x="144" y="704.005"/>
      <point x="144" y="608" type="curve" smooth="yes"/>
      <point x="144" y="104" type="line" smooth="yes"/>
      <point x="144" y="-1.0048"/>
      <point x="42.9583" y="-27.5893"/>
      <point x="24" y="-35" type="curve"/>
      <point x="66" y="-117" type="line"/>
      <point x="215" y="-60"/>
      <point x="258" y="13"/>
      <point x="258" y="95" type="curve" smooth="yes"/>
      <point x="258" y="606" type="line" smooth="yes"/>
      <point x="258" y="685"/>
      <point x="206" y="767"/>
      <point x="68" y="819" type="curve"/>
    </contour>
  </outline>
</glyph>
<glyph name="comma" format="2">
  <advance width="187"/>
  <unicode hex="002C"/>
  <outline>
    <contour>
      <point x="61" y="-66" type="line"/>
      <point x="72" y="-48"/>
      <point x="75" y="-28"/>
      <point x="79" y="-8" type="curve"/>
      <point x="53" y="-2"/>
      <point x="34" y="22"/>
      <point x="34" y="50" type="curve" smooth="yes"/>
      <point x="34" y="82"/>
      <point x="61" y="110"/>
      <point x="95" y="110" type="curve" smooth="yes"/>
      <point x="127" y="110"/>
      <point x="153" y="82"/>
      <point x="153" y="50" type="curve"/>
      <point x="154" y="-41"/>
      <point x="84" y="-83"/>
      <point x="85" y="-83" type="curve"/>
    </contour>
  </outline>
</glyph>
<glyph name="one" format="1">
  <advance width="388" height="962"/>
  <unicode hex="0031"/>
  <outline>
    <contour>
      <point x="17" y="629" type="line"/>
      <point x="14" y="630"/>
      <point x="137" y="647"/>
      <point x="234" y="700" type="curve"/>
      <point x="345" y="700" type="line"/>
      <point x="345" y="0" type="line"/>
      <point x="232" y="0" type="line"/>
      <point x="234" y="589" type="line"/>
      <point x="155" y="553"/>
      <point x="43" y="542"/>
      <point x="46" y="543" type="curve"/>
    </contour>
  </outline>
</glyph>
<glyph name="six" format="1">
  <advance width="704" height="962"/>
  <unicode hex="0036"/>
  <outline>
    <contour>
      <point x="394" y="600" type="line" smooth="yes"/>
      <point x="252" y="600"/>
      <point x="156" y="543"/>
      <point x="156" y="458" type="curve" smooth="yes"/>
      <point x="156" y="375" type="line"/>
      <point x="156" y="373"/>
      <point x="230" y="414"/>
      <point x="352" y="414" type="curve" smooth="yes"/>
      <point x="535" y="414"/>
      <point x="672" y="335"/>
      <point x="672" y="203" type="curve" smooth="yes"/>
      <point x="672" y="73"/>
      <point x="532" y="-9"/>
      <point x="352" y="-9" type="curve" smooth="yes"/>
      <point x="174" y="-9"/>
      <point x="34" y="74"/>
      <point x="34" y="203" type="curve" smooth="yes"/>
      <point x="34" y="452" type="line" smooth="yes"/>
      <point x="34" y="608"/>
      <point x="171" y="702"/>
      <point x="400" y="702" type="curve" smooth="yes"/>
      <point x="453" y="702" type="line"/>
      <point x="453" y="600" type="line"/>
    </contour>
    <contour>
      <point x="352" y="306" type="curve" smooth="yes"/>
      <point x="240" y="306"/>
      <point x="155" y="269"/>
      <point x="155" y="202" type="curve" smooth="yes"/>
      <point x="155" y="135"/>
      <point x="240" y="100"/>
      <point x="352" y="100" type="curve" smooth="yes"/>
      <point x="462" y="100"/>
      <point x="552" y="135"/>
      <point x="552" y="202" type="curve" smooth="yes"/>
      <point x="552" y="269"/>
      <point x="462" y="306"/>
    </contour>
  </outline>
</glyph>
<glyph name="seven" format="2">
  <advance width="675" height="962"/>
  <unicode hex="0037"/>
  <outline>
    <contour>
      <point x="210" y="0" type="line"/>
      <point x="73" y="0" type="line"/>
      <point x="509" y="590" type="line"/>
      <point x="58" y="590" type="line"/>
      <point x="58" y="700" type="line"/>
      <point x="649" y="700" type="line"/>
      <point x="649" y="590" type="line"/>
    </contour>
  </outline>
</glyph>
<glyph name="less" format="2">
  <advance width="618" height="962"/>
  <unicode hex="003C"/>
  <outline>
    <contour>
      <point x="39" y="359" type="line"/>
      <point x="458" y="638" type="line"/>
      <point x="569" y="567" type="line"/>
      <point x="251" y="359" type="line"/>
      <point x="564" y="147" type="line"/>
      <point x="458" y="80" type="line"/>
    </contour>
  </outline>
</glyph>
<glyph name="A" format="1">
  <advance width="793" height="962"/>
  <unicode hex="0041"/>
  <outline>
    <contour>
      <point x="766" y="0" type="line"/>
      <point x="639" y="0" type="line"/>
      <point x="561" y="184" type="line"/>
      <point x="224" y="184" type="line"/>
      <point x="148" y="0" type="line"/>
      <point x="24" y="0" type="line"/>
      <point x="318" y="700" type="line"/>
      <point x="472" y="700" type="line"/>
    </contour>
    <contour>
      <point x="274" y="301" type="line"/>
      <point x="511" y="301" type="line"/>
      <point x="394" y="586" type="line"/>
    </contour>
  </outline>
</glyph>
<glyph name="G" format="2">
  <advance width="674"/>
  <unicode hex="0047"/>
  <outline>
    <contour>
      <point x="531" y="583" type="line"/>
      <point x="486" y="595"/>
      <point x="405" y="601"/>
      <point x="355" y="601" type="curve" smooth="yes"/>
      <point x="245" y="601"/>
      <point x="146" y="597"/>
      <point x="146" y="508" type="curve" smooth="yes"/>
      <point x="146" y="208" type="line" smooth="yes"/>
      <point x="146" y="116"/>
      <point x="222" y="99"/>
      <point x="351" y="99" type="curve" smooth="yes"/>
      <point x="442" y="99"/>
      <point x="527" y="135"/>
      <point x="527" y="187" type="curve" smooth="yes"/>
      <point x="527" y="196" type="line"/>
      <point x="387" y="196" type="line"/>
      <point x="349" y="301" type="line"/>
      <point x="641" y="301" type="line"/>
      <point x="641" y="0" type="line"/>
      <point x="538" y="0" type="line"/>
      <point x="531" y="28" type="line"/>
      <point x="480" y="2"/>
      <point x="383" y="-10"/>
      <point x="341" y="-10" type="curve" smooth="yes"/>
      <point x="159" y="-10"/>
      <point x="33" y="39"/>
      <point x="33" y="195" type="curve" smooth="yes"/>
      <point x="33" y="511" type="line" smooth="yes"/>
      <point x="33" y="661"/>
      <point x="139" y="710"/>
      <point x="339" y="710" type="curve" smooth="yes"/>
      <point x="419" y="710"/>
      <point x="507" y="697"/>
      <point x="566" y="677" type="curve"/>
    </contour>
  </outline>
</glyph>
<glyph name="I" format="2">
  <advance width="260"/>
  <unicode hex="0049"/>
  <outline>
    <contour>
      <point x="18" y="595" type="line"/>
      <point x="18" y="700" type="line"/>
      <point x="219" y="700" type="line"/>
      <point x="219" y="0" type="line"/>
      <point x="108" y="0" type="line"/>
      <point x="108" y="593" type="line"/>
    </contour>
  </outline>
</glyph>
<glyph name="J" format="2">
  <advance width="313"/>
  <unicode hex="004A"/>
  <outline>
    <contour>
      <point x="271" y="140" type="line" smooth="yes"/>
      <point x="271" y="26"/>
      <point x="215" y="-33"/>
      <point x="50" y="-37" type="curve"/>
      <point x="26" y="57" type="line"/>
      <point x="132" y="57"/>
      <point x="156" y="91"/>
      <point x="156" y="157" type="curve" smooth="yes"/>
      <point x="156" y="593" type="line"/>
      <point x="33" y="595" type="line"/>
      <point x="33" y="700" type="line"/>
      <point x="271" y="700" type="line"/>
    </contour>
  </outline>
</glyph>
<glyph name="K" format="1">
  <advance width="660" height="962"/>
  <unicode hex="004B"/>
  <outline>
    <contour>
      <point x="153" y="403" type="line"/>
      <point x="451" y="700" type="line"/>
      <point x="599" y="700" type="line"/>
      <point x="306" y="407" type="line"/>
      <point x="636" y="0" type="line"/>
      <point x="488" y="0" type="line"/>
      <point x="223" y="326" type="line"/>
      <point x="153" y="255" type="line"/>
      <point x="153" y="0" type="line"/>
      <point x="41" y="0" type="line"/>
      <point x="41" y="700" type="line"/>
      <point x="153" y="700" type="line"/>
    </contour>
  </outline>
</glyph>
<glyph name="Q" format="2">
  <advance width="700" height="962"/>
  <unicode hex="0051"/>
  <outline>
    <component base="O"/>
    <contour>
      <point x="408" y="45" type="line" smooth="yes"/>
      <point x="408" y="1"/>
      <point x="467" y="-22"/>
      <point x="608" y="-22" type="curve"/>
      <point x="587" y="-118" type="line"/>
      <point x="347" y="-118"/>
      <point x="297" y="-50"/>
      <point x="297" y="31" type="curve" smooth="yes"/>
      <point x="297" y="174" type="line"/>
      <point x="408" y="174" type="line"/>
    </contour>
  </outline>
</glyph>
<glyph name="T" format="1">
  <advance width="618" height="962"/>
  <unicode hex="0054"/>
  <outline>
    <contour>
      <point x="360" y="589" type="line"/>
      <point x="360" y="0" type="line"/>
      <point x="249" y="0" type="line"/>
      <point x="249" y="589" type="line"/>
      <point x="10" y="589" type="line"/>
      <point x="10" y="700" type="line"/>
      <point x="606" y="700" type="line"/>
      <point x="606" y="589" type="line"/>
    </contour>
  </outline>
</glyph>
<glyph name="V" format="1">
  <advance width="747" height="962"/>
  <unicode hex="0056"/>
  <outline>
    <contour>
      <point x="13" y="700" type="line"/>
      <point x="143" y="700" type="line"/>
      <point x="373" y="139" type="line"/>
      <point x="602" y="700" type="line"/>
      <point x="733" y="700" type="line"/>
      <point x="441" y="0" type="line"/>
      <point x="305" y="0" type="line"/>
    </contour>
  </outline>
</glyph>
<glyph name="X" format="1">
  <advance width="801" height="962"/>
  <unicode hex="0058"/>
  <outline>
    <contour>
      <point x="401" y="451" type="line"/>
      <point x="607" y="700" type="line"/>
      <point x="760" y="700" type="line"/>
      <point x="476" y="361" type="line"/>
      <point x="778" y="0" type="line"/>
      <point x="625" y="0" type="line"/>
      <point x="401" y="270" type="line"/>
      <point x="178" y="0" type="line"/>
      <point x="28" y="0" type="line"/>
      <point x="326" y="361" type="line"/>
      <point x="43" y="700" type="line"/>
      <point x="196" y="700" type="line"/>
    </contour>
  </outline>
</glyph>
<glyph name="Z" format="2">
  <advance width="791"/>
  <unicode hex="005A"/>
  <outline>
    <contour>
      <point x="39" y="700" type="line"/>
      <point x="742.5" y="700" type="line"/>
      <point x="742.5" y="590" type="line"/>
      <point x="212.073" y="122.57" type="line"/>
      <point x="190" y="104" type="line"/>
      <point x="752" y="103" type="line"/>
      <point x="752" y="0" type="line"/>
      <point x="27" y="0" type="line"/>
      <point x="27" y="100.075" type="line"/>
      <point x="548.478" y="570.581" type="line"/>
      <point x="571" y="590" type="line"/>
      <point x="39" y="591" type="line"/>
    </contour>
  </outline>
</glyph>
<glyph name="backslash" format="2">
  <advance width="719"/>
  <unicode hex="005C"/>
  <outline>
    <contour>
      <point x="516" y="-115" type="line"/>
      <point x="24" y="819" type="line"/>
      <point x="206" y="819" type="line"/>
      <point x="693" y="-115" type="line"/>
    </contour>
  </outline>
</glyph>
<glyph name="a" format="2">
  <advance width="644" height="962"/>
  <unicode hex="0061"/>
  <outline>
    <contour>
      <point x="494" y="345" type="curve"/>
      <point x="494" y="421"/>
      <point x="431" y="434"/>
      <point x="280" y="434" type="curve"/>
      <point x="294" y="510" type="line"/>
      <point x="520" y="510"/>
      <point x="606" y="477"/>
      <point x="606" y="323" type="curve" smooth="yes"/>
      <point x="606" y="0" type="line"/>
      <point x="523" y="-8"/>
      <point x="436" y="-11"/>
      <point x="336" y="-11" type="curve" smooth="yes"/>
      <point x="145" y="-11"/>
      <point x="27" y="19"/>
      <point x="27" y="156" type="curve" smooth="yes"/>
      <point x="27" y="253" type="line" smooth="yes"/>
      <point x="27" y="355"/>
      <point x="101" y="401"/>
      <point x="231" y="401" type="curve" smooth="yes"/>
      <point x="325" y="401"/>
      <point x="422" y="377"/>
    </contour>
    <contour>
      <point x="494" y="253" type="line"/>
      <point x="411" y="276"/>
      <point x="310" y="294"/>
      <point x="228" y="294" type="curve" smooth="yes"/>
      <point x="164" y="294"/>
      <point x="140" y="277"/>
      <point x="140" y="229" type="curve" smooth="yes"/>
      <point x="140" y="174" type="line" smooth="yes"/>
      <point x="140" y="124"/>
      <point x="187" y="91"/>
      <point x="349" y="91" type="curve" smooth="yes"/>
      <point x="386" y="91"/>
      <point x="495" y="95"/>
      <point x="494" y="95" type="curve"/>
    </contour>
  </outline>
</glyph>
<glyph name="f" format="2">
  <advance width="380"/>
  <unicode hex="0066"/>
  <outline>
    <contour>
      <point x="328" y="608" type="line"/>
      <point x="313" y="612"/>
      <point x="279" y="613"/>
      <point x="260" y="613" type="curve" smooth="yes"/>
      <point x="183" y="613"/>
      <point x="155" y="593"/>
      <point x="155" y="567" type="curve" smooth="yes"/>
      <point x="155" y="501" type="line"/>
      <point x="342" y="501" type="line"/>
      <point x="315" y="397" type="line"/>
      <point x="155" y="397" type="line"/>
      <point x="155" y="0" type="line"/>
      <point x="39" y="0" type="line"/>
      <point x="39" y="559" type="line" smooth="yes"/>
      <point x="39" y="681"/>
      <point x="132" y="713"/>
      <point x="252" y="713" type="curve" smooth="yes"/>
      <point x="279" y="713"/>
      <point x="328" y="710"/>
      <point x="355" y="706" type="curve"/>
    </contour>
  </outline>
</glyph>
<glyph name="g" format="2">
  <advance width="630"/>
  <unicode hex="0067"/>
  <outline>
    <contour>
      <point x="584" y="-64" type="line" smooth="yes"/>
      <point x="584" y="-170"/>
      <point x="498" y="-211"/>
      <point x="356" y="-211" type="curve"/>
      <point x="335" y="-125" type="line"/>
      <point x="385" y="-125"/>
      <point x="472" y="-107"/>
      <point x="472" y="-53" type="curve" smooth="yes"/>
      <point x="472" y="12" type="line"/>
      <point x="429" y="-3"/>
      <point x="356" y="-12"/>
      <point x="292" y="-12" type="curve" smooth="yes"/>
      <point x="125" y="-12"/>
      <point x="30" y="34"/>
      <point x="30" y="167" type="curve" smooth="yes"/>
      <point x="30" y="356" type="line" smooth="yes"/>
      <point x="30" y="459"/>
      <point x="116" y="511"/>
      <point x="271" y="511" type="curve" smooth="yes"/>
      <point x="342" y="511"/>
      <point x="413" y="501"/>
      <point x="472" y="479" type="curve"/>
      <point x="472" y="501" type="line"/>
      <point x="584" y="501" type="line"/>
    </contour>
    <contour>
      <point x="472" y="387" type="line"/>
      <point x="473" y="386"/>
      <point x="365" y="411"/>
      <point x="289" y="411" type="curve" smooth="yes"/>
      <point x="210" y="411"/>
      <point x="141" y="405"/>
      <point x="141" y="328" type="curve" smooth="yes"/>
      <point x="141" y="170" type="line" smooth="yes"/>
      <point x="141" y="111"/>
      <point x="192" y="86"/>
      <point x="276" y="88" type="curve" smooth="yes"/>
      <point x="406" y="91"/>
      <point x="472" y="118"/>
      <point x="472" y="140" type="curve" smooth="yes"/>
    </contour>
  </outline>
</glyph>
<glyph name="i" format="2">
  <advance width="200" height="962"/>
  <unicode hex="0069"/>
  <outline>
    <contour>
      <point x="46" y="0" type="line"/>
      <point x="46" y="501" type="line"/>
      <point x="152" y="501" type="line"/>
      <point x="152" y="0" type="line"/>
    </contour>
    <contour>
      <point x="100" y="710" type="curve" smooth="yes"/>
      <point x="134" y="710"/>
      <point x="160" y="686"/>
      <point x="160" y="652" type="curve" smooth="yes"/>
      <point x="160" y="618"/>
      <point x="134" y="592"/>
      <point x="100" y="592" type="curve" smooth="yes"/>
      <point x="66" y="592"/>
      <point x="40" y="618"/>
      <point x="40" y="652" type="curve" smooth="yes"/>
      <point x="40" y="686"/>
      <point x="66" y="710"/>
    </contour>
  </outline>
</glyph>
<glyph name="k" format="2">
  <advance width="667"/>
  <unicode hex="006B"/>
  <outline>
    <contour>
      <point x="344" y="341" type="line"/>
      <point x="647" y="0" type="line"/>
      <point x="500" y="0" type="line"/>
      <point x="250" y="283" type="line"/>
      <point x="152" y="223" type="line"/>
      <point x="152" y="0" type="line"/>
      <point x="41" y="0" type="line"/>
      <point x="41" y="700" type="line"/>
      <point x="152" y="700" type="line"/>
      <point x="152" y="351" type="line"/>
      <point x="456" y="537" type="line"/>
      <point x="533" y="457" type="line"/>
    </contour>
  </outline>
</glyph>
<glyph name="l" format="1">
  <advance width="198" height="962"/>
  <unicode hex="006C"/>
  <outline>
    <contour>
      <point x="41" y="0" type="line"/>
      <point x="41" y="700" type="line"/>
      <point x="152" y="700" type="line"/>
      <point x="152" y="0" type="line"/>
    </contour>
  </outline>
</glyph>
<glyph name="o" format="1">
  <advance width="615" height="962"/>
  <unicode hex="006F"/>
  <outline>
    <contour>
      <point x="585" y="175" type="line" smooth="yes"/>
      <point x="585" y="47"/>
      <point x="495" y="-10"/>
      <point x="312" y="-10" type="curve" smooth="yes"/>
      <point x="114" y="-10"/>
      <point x="30" y="63"/>
      <point x="30" y="175" type="curve" smooth="yes"/>
      <point x="30" y="327" type="line" smooth="yes"/>
      <point x="30" y="462"/>
      <point x="129" y="512"/>
      <point x="312" y="512" type="curve" smooth="yes"/>
      <point x="486" y="512"/>
      <point x="585" y="459"/>
      <point x="585" y="327" type="curve" smooth="yes"/>
    </contour>
    <contour>
      <point x="474" y="325" type="line" smooth="yes"/>
      <point x="474" y="373"/>
      <point x="434" y="406"/>
      <point x="312" y="406" type="curve" smooth="yes"/>
      <point x="190" y="406"/>
      <point x="141" y="376"/>
      <point x="141" y="325" type="curve" smooth="yes"/>
      <point x="141" y="176" type="line" smooth="yes"/>
      <point x="141" y="135"/>
      <point x="175" y="95"/>
      <point x="312" y="95" type="curve" smooth="yes"/>
      <point x="447" y="95"/>
      <point x="474" y="131"/>
      <point x="474" y="176" type="curve" smooth="yes"/>
    </contour>
  </outline>
</glyph>
<glyph name="q" format="2">
  <advance width="622"/>
  <unicode hex="0071"/>
  <outline>
    <contour>
      <point x="471" y="15" type="line"/>
      <point x="422" y="-4"/>
      <point x="355" y="-11"/>
      <point x="292" y="-11" type="curve" smooth="yes"/>
      <point x="125" y="-11"/>
      <point x="29" y="37"/>
      <point x="29" y="167" type="curve" smooth="yes"/>
      <point x="29" y="356" type="line" smooth="yes"/>
      <point x="29" y="469"/>
      <point x="114" y="512"/>
      <point x="272" y="512" type="curve" smooth="yes"/>
      <point x="343" y="512"/>
      <point x="410" y="500"/>
      <point x="471" y="479" type="curve"/>
      <point x="471" y="501" type="line"/>
      <point x="582" y="501" type="line"/>
      <point x="582" y="-213" type="line"/>
      <point x="471" y="-192" type="line"/>
    </contour>
    <contour>
      <point x="471" y="388" type="line"/>
      <point x="466" y="389"/>
      <point x="367" y="412"/>
      <point x="280" y="412" type="curve" smooth="yes"/>
      <point x="214" y="412"/>
      <point x="140" y="406"/>
      <point x="140" y="349" type="curve" smooth="yes"/>
      <point x="140" y="162" type="line" smooth="yes"/>
      <point x="140" y="123"/>
      <point x="175" y="88"/>
      <point x="269" y="89" type="curve" smooth="yes"/>
      <point x="411" y="91"/>
      <point x="471" y="118"/>
      <point x="471" y="141" type="curve" smooth="yes"/>
    </contour>
  </outline>
</glyph>
<glyph name="r" format="1">
  <advance width="471" height="962"/>
  <unicode hex="0072"/>
  <outline>
    <contour>
      <point x="437" y="410" type="line"/>
      <point x="437" y="410"/>
      <point x="395" y="418"/>
      <point x="348" y="418" type="curve" smooth="yes"/>
      <point x="266" y="418"/>
      <point x="203" y="411"/>
      <point x="137" y="389" type="curve"/>
      <point x="137" y="0" type="line"/>
      <point x="39" y="0" type="line"/>
      <point x="39" y="501" type="line"/>
      <point x="137" y="501" type="line"/>
      <point x="137" y="481" type="line"/>
      <point x="191" y="503"/>
      <point x="260" y="516"/>
      <point x="330" y="516" type="curve" smooth="yes"/>
      <point x="370" y="516"/>
      <point x="419" y="509"/>
      <point x="446" y="501" type="curve"/>
    </contour>
  </outline>
</glyph>
<glyph name="s" format="2">
  <advance width="610" height="962"/>
  <unicode hex="0073"/>
  <anchor x="303" y="589" name="top"/>
  <outline>
    <contour>
      <point x="467" y="386" type="line"/>
      <point x="426" y="399"/>
      <point x="363" y="408"/>
      <point x="300" y="408" type="curve" smooth="yes"/>
      <point x="257" y="408"/>
      <point x="184" y="405"/>
      <point x="184" y="376" type="curve" smooth="yes"/>
      <point x="184" y="309"/>
      <point x="581" y="320"/>
      <point x="581" y="147" type="curve" smooth="yes"/>
      <point x="581" y="37"/>
      <point x="461" y="-17"/>
      <point x="310" y="-17" type="curve" smooth="yes"/>
      <point x="200" y="-17"/>
      <point x="95" y="18"/>
      <point x="25" y="70" type="curve"/>
      <point x="86" y="141" type="line"/>
      <point x="143" y="110"/>
      <point x="251" y="86"/>
      <point x="323" y="86" type="curve" smooth="yes"/>
      <point x="386" y="86"/>
      <point x="460" y="101"/>
      <point x="460" y="139" type="curve" smooth="yes"/>
      <point x="460" y="218"/>
      <point x="61" y="207"/>
      <point x="61" y="377" type="curve" smooth="yes"/>
      <point x="61" y="475"/>
      <point x="177" y="514"/>
      <point x="313" y="514" type="curve" smooth="yes"/>
      <point x="377" y="514"/>
      <point x="457" y="502"/>
      <point x="508" y="478" type="curve"/>
    </contour>
  </outline>
  <guideline angle="90" x="-349.807" y="0"/>
  <guideline angle="0" x="0" y="345"/>
</glyph>
<glyph name="w" format="1">
  <advance width="1066" height="962"/>
  <unicode hex="0077"/>
  <outline>
    <contour>
      <point x="591" y="500" type="line"/>
      <point x="741" y="129" type="line"/>
      <point x="912" y="500" type="line"/>
      <point x="1039" y="500" type="line"/>
      <point x="806" y="0" type="line"/>
      <point x="671" y="0" type="line"/>
      <point x="529" y="346" type="line"/>
      <point x="389" y="0" type="line"/>
      <point x="249" y="0" type="line"/>
      <point x="17" y="500" type="line"/>
      <point x="141" y="500" type="line"/>
      <point x="316" y="127" type="line"/>
      <point x="466" y="500" type="line"/>
    </contour>
  </outline>
</glyph>
<glyph name="x" format="1">
  <advance width="746" height="962"/>
  <unicode hex="0078"/>
  <outline>
    <contour>
      <point x="373" y="328" type="line"/>
      <point x="553" y="501" type="line"/>
      <point x="715" y="501" type="line"/>
      <point x="455" y="251" type="line"/>
      <point x="714" y="0" type="line"/>
      <point x="555" y="0" type="line"/>
      <point x="374" y="172" type="line"/>
      <point x="196" y="0" type="line"/>
      <point x="34" y="0" type="line"/>
      <point x="294" y="250" type="line"/>
      <point x="34" y="501" type="line"/>
      <point x="195" y="501" type="line"/>
    </contour>
  </outline>
</glyph>
<glyph name="z" format="1">
  <advance width="617" height="962"/>
  <unicode hex="007A"/>
  <outline>
    <contour>
      <point x="571" y="501" type="line"/>
      <point x="571" y="401" type="line"/>
      <point x="211" y="106" type="line"/>
      <point x="586" y="106" type="line"/>
      <point x="586" y="0" type="line"/>
      <point x="33" y="0" type="line"/>
      <point x="33" y="106" type="line"/>
      <point x="393" y="398" type="line"/>
      <point x="46" y="398" type="line"/>
      <point x="46" y="501" type="line"/>
    </contour>
  </outline>
</glyph>
<glyph name="asciitilde" format="2">
  <advance width="267"/>
  <unicode hex="007E"/>
  <outline>
    <contour>
      <point x="292" y="300" type="line"/>
      <point x="266" y="278"/>
      <point x="235" y="257"/>
      <point x="195" y="257" type="curve" smooth="yes"/>
      <point x="152" y="257"/>
      <point x="116" y="287"/>
      <point x="74" y="287" type="curve" smooth="yes"/>
      <point x="54" y="287"/>
      <point x="32" y="280"/>
      <point x="8" y="264" type="curve"/>
      <point x="-25" y="320" type="line"/>
      <point x="2" y="343"/>
      <point x="33" y="361"/>
      <point x="70" y="361" type="curve" smooth="yes"/>
      <point x="117" y="361"/>
      <point x="153" y="332"/>
      <point x="196" y="332" type="curve" smooth="yes"/>
      <point x="214" y="332"/>
      <point x="235" y="339"/>
      <point x="259" y="356" type="curve"/>
    </contour>
  </outline>
</glyph>
<glyph name="exclamdown" format="2">
  <advance width="195" height="962"/>
  <unicode hex="00A1"/>
  <outline>
    <contour>
      <point x="156" y="68" type="line"/>
      <point x="156" y="23"/>
      <point x="136" y="0"/>
      <point x="96" y="0" type="curve" smooth="yes"/>
      <point x="58" y="0"/>
      <point x="39" y="24"/>
      <point x="39" y="69" type="curve"/>
      <point x="57" y="590" type="line"/>
      <point x="134" y="590" type="line"/>
    </contour>
    <contour>
      <point x="157" y="666" type="curve" smooth="yes"/>
      <point x="157" y="633"/>
      <point x="131" y="607"/>
      <point x="98" y="607" type="curve" smooth="yes"/>
      <point x="65" y="607"/>
      <point x="38" y="633"/>
      <point x="38" y="666" type="curve" smooth="yes"/>
      <point x="38" y="700"/>
      <point x="65" y="726"/>
      <point x="98" y="726" type="curve" smooth="yes"/>
      <point x="131" y="726"/>
      <point x="157" y="700"/>
    </contour>
  </outline>
</glyph>
<glyph name="cent" format="2">
  <advance width="539" height="962"/>
  <unicode hex="00A2"/>
  <outline>
    <component base="c"/>
    <contour>
      <point x="234" y="-114" type="line"/>
      <point x="234" y="249.945" type="line"/>
      <point x="234" y="625" type="line"/>
      <point x="345" y="625" type="line"/>
      <point x="345" y="246.031" type="line"/>
      <point x="345" y="-114" type="line"/>
    </contour>
  </outline>
</glyph>
<glyph name="currency" format="2">
  <advance width="499"/>
  <unicode hex="00A4"/>
  <outline>
    <contour>
      <point x="378" y="350" type="line"/>
      <point x="389" y="330"/>
      <point x="395" y="308"/>
      <point x="395" y="284" type="curve" smooth="yes"/>
      <point x="395" y="258"/>
      <point x="389" y="238"/>
      <point x="378" y="218" type="curve"/>
      <point x="466" y="132" type="line"/>
      <point x="401" y="68" type="line"/>
      <point x="313" y="154" type="line"/>
      <point x="295" y="144"/>
      <point x="271" y="138"/>
      <point x="248" y="138" type="curve" smooth="yes"/>
      <point x="224" y="138"/>
      <point x="202" y="145"/>
      <point x="182" y="155" type="curve"/>
      <point x="95" y="68" type="line"/>
      <point x="31" y="132" type="line"/>
      <point x="118" y="218" type="line"/>
      <point x="108" y="238"/>
      <point x="102" y="258"/>
      <point x="102" y="284" type="curve" smooth="yes"/>
      <point x="102" y="307"/>
      <point x="108" y="331"/>
      <point x="118" y="349" type="curve"/>
      <point x="31" y="436" type="line"/>
      <point x="95" y="500" type="line"/>
      <point x="182" y="412" type="line"/>
      <point x="202" y="424"/>
      <point x="224" y="429"/>
      <point x="248" y="429" type="curve" smooth="yes"/>
      <point x="272" y="429"/>
      <point x="295" y="423"/>
      <point x="315" y="412" type="curve"/>
      <point x="401" y="500" type="line"/>
      <point x="466" y="436" type="line"/>
    </contour>
    <contour>
      <point x="248" y="232" type="curve" smooth="yes"/>
      <point x="278" y="232"/>
      <point x="301" y="255"/>
      <point x="301" y="284" type="curve" smooth="yes"/>
      <point x="301" y="314"/>
      <point x="278" y="335"/>
      <point x="248" y="335" type="curve" smooth="yes"/>
      <point x="220" y="335"/>
      <point x="197" y="314"/>
      <point x="197" y="284" type="curve" smooth="yes"/>
      <point x="197" y="255"/>
      <point x="220" y="232"/>
    </contour>
  </outline>
</glyph>
<glyph name="section" format="2">
  <advance width="631"/>
  <unicode hex="00A7"/>
  <outline>
    <contour>
      <point x="467.75" y="573" type="line"/>
      <point x="426.75" y="586"/>
      <point x="363.75" y="595"/>
      <point x="300.75" y="595" type="curve" smooth="yes"/>
      <point x="257.75" y="595"/>
      <point x="184.75" y="592"/>
      <point x="184.75" y="563" type="curve" smooth="yes"/>
      <point x="184.75" y="496"/>
      <point x="581.75" y="507"/>
      <point x="581.75" y="334" type="curve" smooth="yes"/>
      <point x="581.75" y="292.81"/>
      <point x="564.928" y="259.49"/>
      <point x="535.962" y="233.912" type="curve"/>
      <point x="563.533" y="211.405"/>
      <point x="581" y="183.26"/>
      <point x="581" y="147" type="curve" smooth="yes"/>
      <point x="581" y="37"/>
      <point x="461" y="-17"/>
      <point x="310" y="-17" type="curve" smooth="yes"/>
      <point x="200" y="-17"/>
      <point x="95" y="18"/>
      <point x="25" y="70" type="curve"/>
      <point x="86" y="141" type="line"/>
      <point x="143" y="110"/>
      <point x="251" y="86"/>
      <point x="323" y="86" type="curve" smooth="yes"/>
      <point x="386" y="86"/>
      <point x="460" y="101"/>
      <point x="460" y="139" type="curve" smooth="yes"/>
      <point x="460" y="218"/>
      <point x="61" y="207"/>
      <point x="61" y="377" type="curve" smooth="yes"/>
      <point x="61" y="418.624"/>
      <point x="81.8966" y="449.572"/>
      <point x="116.37" y="471.433" type="curve"/>
      <point x="83.3017" y="494.788"/>
      <point x="61.75" y="524.502"/>
      <point x="61.75" y="564" type="curve" smooth="yes"/>
      <point x="61.75" y="662"/>
      <point x="177.75" y="701"/>
      <point x="313.75" y="701" type="curve" smooth="yes"/>
      <point x="377.75" y="701"/>
      <point x="457.75" y="689"/>
      <point x="508.75" y="665" type="curve"/>
    </contour>
    <contour>
      <point x="425.067" y="288.56" type="curve"/>
      <point x="446.446" y="297.076"/>
      <point x="460.75" y="309.29"/>
      <point x="460.75" y="326" type="curve" smooth="yes"/>
      <point x="460.75" y="369.625"/>
      <point x="339.08" y="385.805"/>
      <point x="230.115" y="420.175" type="curve"/>
      <point x="203.992" y="411.598"/>
      <point x="184" y="395.426"/>
      <point x="184" y="376" type="curve" smooth="yes"/>
      <point x="184" y="337.677"/>
      <point x="313.883" y="324.873"/>
    </contour>
  </outline>
  <guideline angle="90" x="-349.059" y="0"/>
  <guideline angle="0" x="0" y="532"/>
  <guideline angle="90" x="-349.807" y="0"/>
  <guideline angle="0" x="0" y="345"/>
</glyph>
<glyph name="registered" format="2">
  <advance width="1014" height="962"/>
  <unicode hex="00AE"/>
  <outline>
    <contour>
      <point x="981" y="186" type="line" smooth="yes"/>
      <point x="981" y="1"/>
      <point x="784" y="-95"/>
      <point x="506" y="-95" type="curve" smooth="yes"/>
      <point x="228" y="-95"/>
      <point x="30" y="1"/>
      <point x="30" y="186" type="curve" smooth="yes"/>
      <point x="30" y="327" type="line" smooth="yes"/>
      <point x="30" y="512"/>
      <point x="228" y="605"/>
      <point x="506" y="605" type="curve" smooth="yes"/>
      <point x="784" y="605"/>
      <point x="981" y="512"/>
      <point x="981" y="327" type="curve" smooth="yes"/>
    </contour>
    <contour>
      <point x="871" y="310" type="line" smooth="yes"/>
      <point x="871" y="431"/>
      <point x="770" y="505"/>
      <point x="506" y="505" type="curve" smooth="yes"/>
      <point x="245" y="505"/>
      <point x="141" y="429"/>
      <point x="141" y="310" type="curve" smooth="yes"/>
      <point x="141" y="203" type="line" smooth="yes"/>
      <point x="141" y="89"/>
      <point x="245" y="7"/>
      <point x="506" y="7" type="curve" smooth="yes"/>
      <point x="770" y="7"/>
      <point x="871" y="91"/>
      <point x="871" y="203" type="curve" smooth="yes"/>
    </contour>
    <contour>
      <point x="546" y="444" type="line" smooth="yes"/>
      <point x="705" y="444"/>
      <point x="762" y="399"/>
      <point x="762" y="284" type="curve" smooth="yes"/>
      <point x="762" y="217"/>
      <point x="737" y="173"/>
      <point x="686" y="151" type="curve"/>
      <point x="765" y="61" type="line"/>
      <point x="615" y="61" type="line"/>
      <point x="568" y="129" type="line"/>
      <point x="362" y="129" type="line"/>
      <point x="362" y="61" type="line"/>
      <point x="252" y="61" type="line"/>
      <point x="252" y="444" type="line"/>
    </contour>
    <contour>
      <point x="574" y="234" type="line" smooth="yes"/>
      <point x="609" y="234"/>
      <point x="639" y="238"/>
      <point x="639" y="284" type="curve" smooth="yes"/>
      <point x="639" y="331"/>
      <point x="607" y="334"/>
      <point x="573" y="334" type="curve" smooth="yes"/>
      <point x="362" y="334" type="line"/>
      <point x="362" y="234" type="line"/>
    </contour>
  </outline>
</glyph>
<glyph name="plusminus" format="1">
  <advance width="587" height="962"/>
  <unicode hex="00B1"/>
  <outline>
    <contour>
      <point x="53" y="350" type="line"/>
      <point x="53" y="456" type="line"/>
      <point x="210" y="456" type="line"/>
      <point x="210" y="566" type="line"/>
      <point x="377" y="566" type="line"/>
      <point x="377" y="456" type="line"/>
      <point x="534" y="456" type="line"/>
      <point x="534" y="350" type="line"/>
      <point x="377" y="350" type="line"/>
      <point x="377" y="247" type="line"/>
      <point x="533" y="247" type="line"/>
      <point x="533" y="147" type="line"/>
      <point x="51" y="147" type="line"/>
      <point x="51" y="247" type="line"/>
      <point x="210" y="247" type="line"/>
      <point x="210" y="350" type="line"/>
    </contour>
  </outline>
</glyph>
<glyph name="mu" format="2">
  <advance width="643"/>
  <unicode hex="00B5"/>
  <outline>
    <contour>
      <point x="587" y="113" type="line" smooth="yes"/>
      <point x="587" y="48"/>
      <point x="622" y="29"/>
      <point x="625" y="26" type="curve"/>
      <point x="530" y="-12" type="line"/>
      <point x="510" y="-2"/>
      <point x="494" y="15"/>
      <point x="488" y="25" type="curve"/>
      <point x="469" y="8"/>
      <point x="400" y="-12"/>
      <point x="329" y="-12" type="curve" smooth="yes"/>
      <point x="278" y="-12"/>
      <point x="177" y="5"/>
      <point x="150" y="29" type="curve"/>
      <point x="150" y="-216" type="line"/>
      <point x="40" y="-192" type="line"/>
      <point x="40" y="501" type="line"/>
      <point x="150" y="501" type="line"/>
      <point x="150" y="153" type="line" smooth="yes"/>
      <point x="150" y="112"/>
      <point x="239" y="90"/>
      <point x="312" y="92" type="curve" smooth="yes"/>
      <point x="421" y="95"/>
      <point x="475" y="121"/>
      <point x="475" y="159" type="curve" smooth="yes"/>
      <point x="475" y="498" type="line"/>
      <point x="587" y="511" type="line"/>
    </contour>
  </outline>
</glyph>
<glyph name="paragraph" format="1">
  <advance width="927" height="962"/>
  <unicode hex="00B6"/>
  <outline>
    <contour>
      <point x="347" y="196" type="line" smooth="yes"/>
      <point x="177" y="196"/>
      <point x="32" y="237"/>
      <point x="32" y="454" type="curve" smooth="yes"/>
      <point x="32" y="651"/>
      <point x="181" y="702"/>
      <point x="347" y="702" type="curve" smooth="yes"/>
      <point x="883" y="702" type="line"/>
      <point x="883" y="1" type="line"/>
      <point x="773" y="1" type="line"/>
      <point x="773" y="592" type="line"/>
      <point x="631" y="592" type="line"/>
      <point x="631" y="1" type="line"/>
      <point x="518" y="1" type="line"/>
      <point x="518" y="196" type="line"/>
    </contour>
    <contour>
      <point x="373" y="592" type="line" smooth="yes"/>
      <point x="221" y="592"/>
      <point x="152" y="580"/>
      <point x="152" y="454" type="curve" smooth="yes"/>
      <point x="152" y="319"/>
      <point x="220" y="301"/>
      <point x="373" y="301" type="curve" smooth="yes"/>
      <point x="518" y="301" type="line"/>
      <point x="518" y="592" type="line"/>
    </contour>
  </outline>
</glyph>
<glyph name="questiondown" format="2">
  <advance width="614"/>
  <unicode hex="00BF"/>
  <outline>
    <contour>
      <point x="583" y="160" type="line"/>
      <point x="583" y="28"/>
      <point x="443" y="-17"/>
      <point x="311" y="-17" type="curve" smooth="yes"/>
      <point x="155" y="-17"/>
      <point x="26" y="41"/>
      <point x="26" y="160" type="curve" smooth="yes"/>
      <point x="26" y="236"/>
      <point x="99" y="280"/>
      <point x="163" y="327" type="curve" smooth="yes"/>
      <point x="243" y="386"/>
      <point x="275" y="410"/>
      <point x="275" y="482" type="curve" smooth="yes"/>
      <point x="275" y="573" type="line"/>
      <point x="383" y="573" type="line"/>
      <point x="383" y="480" type="line" smooth="yes"/>
      <point x="383" y="394"/>
      <point x="335" y="337"/>
      <point x="278" y="292" type="curve" smooth="yes"/>
      <point x="224" y="248"/>
      <point x="135" y="211"/>
      <point x="135" y="156" type="curve" smooth="yes"/>
      <point x="135" y="109"/>
      <point x="201" y="82"/>
      <point x="314" y="82" type="curve" smooth="yes"/>
      <point x="396" y="82"/>
      <point x="474" y="101"/>
      <point x="474" y="160" type="curve"/>
    </contour>
    <contour>
      <point x="330" y="710" type="curve" smooth="yes"/>
      <point x="364" y="710"/>
      <point x="390" y="683"/>
      <point x="390" y="650" type="curve" smooth="yes"/>
      <point x="390" y="616"/>
      <point x="364" y="589"/>
      <point x="330" y="589" type="curve" smooth="yes"/>
      <point x="297" y="589"/>
      <point x="271" y="616"/>
      <point x="271" y="650" type="curve" smooth="yes"/>
      <point x="271" y="683"/>
      <point x="297" y="710"/>
    </contour>
  </outline>
</glyph>
<glyph name="AE" format="2">
  <advance width="1099"/>
  <unicode hex="00C6"/>
  <outline>
    <contour>
      <point x="567" y="0" type="line"/>
      <point x="567" y="194" type="line"/>
      <point x="262" y="194" type="line"/>
      <point x="152" y="0" type="line"/>
      <point x="17" y="0" type="line"/>
      <point x="409" y="700" type="line"/>
      <point x="1065" y="700" type="line"/>
      <point x="1065" y="590" type="line"/>
      <point x="677" y="590" type="line"/>
      <point x="677" y="414" type="line"/>
      <point x="959" y="414" type="line"/>
      <point x="917" y="307" type="line"/>
      <point x="677" y="307" type="line"/>
      <point x="677" y="101" type="line"/>
      <point x="1066" y="101" type="line"/>
      <point x="1066" y="0" type="line"/>
    </contour>
    <contour>
      <point x="320" y="301" type="line"/>
      <point x="566" y="301" type="line"/>
      <point x="566" y="590" type="line"/>
      <point x="481" y="590" type="line"/>
    </contour>
  </outline>
</glyph>
<glyph name="Eth" format="2">
  <advance width="708"/>
  <unicode hex="00D0"/>
  <outline>
    <component base="D"/>
    <contour>
      <point x="123" y="309" type="line"/>
      <point x="123" y="414" type="line"/>
      <point x="414" y="414" type="line"/>
      <point x="377" y="309" type="line"/>
    </contour>
  </outline>
</glyph>
<glyph name="multiply" format="1">
  <advance width="515" height="962"/>
  <unicode hex="00D7"/>
  <outline>
    <contour>
      <point x="259" y="387" type="line"/>
      <point x="412" y="510" type="line"/>
      <point x="474" y="439" type="line"/>
      <point x="333" y="329" type="line"/>
      <point x="470" y="223" type="line"/>
      <point x="403" y="155" type="line"/>
      <point x="258" y="270" type="line"/>
      <point x="102" y="148" type="line"/>
      <point x="37" y="217" type="line"/>
      <point x="180" y="329" type="line"/>
      <point x="37" y="441" type="line"/>
      <point x="99" y="509" type="line"/>
    </contour>
  </outline>
</glyph>
<glyph name="Thorn" format="2">
  <advance width="726"/>
  <unicode hex="00DE"/>
  <outline>
    <contour>
      <point x="412" y="611" type="line" smooth="yes"/>
      <point x="569" y="611"/>
      <point x="692" y="562"/>
      <point x="692" y="364" type="curve" smooth="yes"/>
      <point x="692" y="155"/>
      <point x="564" y="107"/>
      <point x="402" y="107" type="curve" smooth="yes"/>
      <point x="154" y="107" type="line"/>
      <point x="154" y="0" type="line"/>
      <point x="42" y="0" type="line"/>
      <point x="42" y="700" type="line"/>
      <point x="154" y="700" type="line"/>
      <point x="154" y="611" type="line"/>
    </contour>
    <contour>
      <point x="154" y="212" type="line"/>
      <point x="377" y="212" type="line" smooth="yes"/>
      <point x="504" y="212"/>
      <point x="577" y="229"/>
      <point x="577" y="364" type="curve" smooth="yes"/>
      <point x="577" y="490"/>
      <point x="503" y="501"/>
      <point x="377" y="501" type="curve" smooth="yes"/>
      <point x="154" y="501" type="line"/>
    </contour>
  </outline>
</glyph>
<glyph name="divide" format="2">
  <advance width="381" height="962"/>
  <unicode hex="00F7"/>
  <outline>
    <contour>
      <point x="29" y="341" type="line"/>
      <point x="29" y="427" type="line"/>
      <point x="350" y="427" type="line"/>
      <point x="350" y="341" type="line"/>
    </contour>
    <contour>
      <point x="191" y="573" type="curve" smooth="yes"/>
      <point x="223" y="573"/>
      <point x="251" y="544"/>
      <point x="251" y="514" type="curve" smooth="yes"/>
      <point x="251" y="480"/>
      <point x="223" y="454"/>
      <point x="191" y="454" type="curve" smooth="yes"/>
      <point x="157" y="454"/>
      <point x="131" y="480"/>
      <point x="131" y="514" type="curve" smooth="yes"/>
      <point x="131" y="544"/>
      <point x="157" y="573"/>
    </contour>
    <contour>
      <point x="191" y="314" type="curve" smooth="yes"/>
      <point x="223" y="314"/>
      <point x="251" y="290"/>
      <point x="251" y="256" type="curve" smooth="yes"/>
      <point x="251" y="222"/>
      <point x="223" y="196"/>
      <point x="191" y="196" type="curve" smooth="yes"/>
      <point x="157" y="196"/>
      <point x="131" y="222"/>
      <point x="131" y="256" type="curve" smooth="yes"/>
      <point x="131" y="290"/>
      <point x="157" y="314"/>
    </contour>
  </outline>
</glyph>
<glyph name="Hbar" format="2">
  <advance width="722"/>
  <unicode hex="0126"/>
  <outline>
    <contour>
      <point x="7" y="513" type="line"/>
      <point x="7" y="590" type="line"/>
      <point x="712" y="590" type="line"/>
      <point x="712" y="513" type="line"/>
    </contour>
    <contour>
      <point x="567" y="414" type="line"/>
      <point x="567" y="700" type="line"/>
      <point x="678" y="700" type="line"/>
      <point x="678" y="0" type="line"/>
      <point x="567" y="0" type="line"/>
      <point x="567" y="309" type="line"/>
      <point x="152" y="309" type="line"/>
      <point x="152" y="0" type="line"/>
      <point x="41" y="0" type="line"/>
      <point x="41" y="700" type="line"/>
      <point x="152" y="700" type="line"/>
      <point x="152" y="414" type="line"/>
    </contour>
  </outline>
</glyph>
<glyph name="IJ" format="2">
  <advance width="815" height="962"/>
  <unicode hex="0132"/>
  <outline>
    <contour>
      <point x="774" y="700" type="line"/>
      <point x="774" y="181" type="line" smooth="yes"/>
      <point x="774" y="42"/>
      <point x="642" y="-11"/>
      <point x="451" y="-11" type="curve" smooth="yes"/>
      <point x="261" y="-11"/>
      <point x="125" y="52"/>
      <point x="125" y="186" type="curve" smooth="yes"/>
      <point x="125" y="224" type="line"/>
      <point x="236" y="224" type="line"/>
      <point x="236" y="191" type="line" smooth="yes"/>
      <point x="236" y="115"/>
      <point x="349" y="98"/>
      <point x="449" y="98" type="curve" smooth="yes"/>
      <point x="546" y="98"/>
      <point x="664" y="121"/>
      <point x="664" y="193" type="curve" smooth="yes"/>
      <point x="664" y="594" type="line"/>
      <point x="564" y="595" type="line"/>
      <point x="564" y="700" type="line"/>
    </contour>
    <contour>
      <point x="236" y="700" type="line"/>
      <point x="236" y="321" type="line"/>
      <point x="125" y="321" type="line"/>
      <point x="125" y="593" type="line"/>
      <point x="15" y="595" type="line"/>
      <point x="15" y="700" type="line"/>
    </contour>
  </outline>
</glyph>
<glyph name="ij" format="2">
  <advance width="644"/>
  <unicode hex="0133"/>
  <outline>
    <contour>
      <point x="99" y="710" type="curve" smooth="yes"/>
      <point x="132" y="710"/>
      <point x="159" y="686"/>
      <point x="159" y="652" type="curve" smooth="yes"/>
      <point x="159" y="618"/>
      <point x="132" y="592"/>
      <point x="99" y="592" type="curve" smooth="yes"/>
      <point x="66" y="592"/>
      <point x="40" y="618"/>
      <point x="40" y="652" type="curve" smooth="yes"/>
      <point x="40" y="686"/>
      <point x="66" y="710"/>
    </contour>
    <contour>
      <point x="605" y="651" type="curve" smooth="yes"/>
      <point x="605" y="619"/>
      <point x="578" y="592"/>
      <point x="544" y="592" type="curve" smooth="yes"/>
      <point x="511" y="592"/>
      <point x="485" y="619"/>
      <point x="485" y="651" type="curve" smooth="yes"/>
      <point x="485" y="685"/>
      <point x="511" y="710"/>
      <point x="544" y="710" type="curve" smooth="yes"/>
      <point x="578" y="710"/>
      <point x="605" y="685"/>
    </contour>
    <contour>
      <point x="488" y="501" type="line"/>
      <point x="600" y="501" type="line"/>
      <point x="600" y="-69" type="line" smooth="yes"/>
      <point x="600" y="-165"/>
      <point x="510" y="-214"/>
      <point x="374" y="-214" type="curve"/>
      <point x="330" y="-125" type="line"/>
      <point x="392" y="-125"/>
      <point x="488" y="-103"/>
      <point x="488" y="-54" type="curve" smooth="yes"/>
      <point x="488" y="28" type="line"/>
      <point x="416" y="4"/>
      <point x="348" y="-6"/>
      <point x="285" y="-6" type="curve" smooth="yes"/>
      <point x="165" y="-6"/>
      <point x="44" y="25"/>
      <point x="44" y="154" type="curve" smooth="yes"/>
      <point x="44" y="501" type="line"/>
      <point x="155" y="501" type="line"/>
      <point x="155" y="165" type="line" smooth="yes"/>
      <point x="155" y="93"/>
      <point x="244" y="95"/>
      <point x="309" y="95" type="curve" smooth="yes"/>
      <point x="394" y="95"/>
      <point x="488" y="124"/>
      <point x="488" y="161" type="curve" smooth="yes"/>
    </contour>
  </outline>
</glyph>
<glyph name="kgreenlandic" format="2">
  <advance width="678" height="962"/>
  <unicode hex="0138"/>
  <outline>
    <contour>
      <point x="472" y="158" type="line" smooth="yes"/>
      <point x="526" y="106"/>
      <point x="588" y="98"/>
      <point x="645" y="98" type="curve" smooth="yes"/>
      <point x="649" y="98" type="line"/>
      <point x="649" y="0" type="line"/>
      <point x="595" y="0" type="line" smooth="yes"/>
      <point x="481" y="0"/>
      <point x="406" y="67"/>
      <point x="347" y="125" type="curve" smooth="yes"/>
      <point x="226" y="242" type="line"/>
      <point x="151" y="196" type="line"/>
      <point x="151" y="0" type="line"/>
      <point x="40" y="0" type="line"/>
      <point x="40" y="512" type="line"/>
      <point x="151" y="500" type="line"/>
      <point x="151" y="323" type="line"/>
      <point x="438" y="500" type="line"/>
      <point x="646" y="500" type="line"/>
      <point x="322" y="301" type="line"/>
    </contour>
  </outline>
</glyph>
<glyph name="lslash" format="2">
  <advance width="453" height="962"/>
  <unicode hex="0142"/>
  <outline>
    <component base="l" xOffset="128.5"/>
    <contour>
      <point x="407" y="490" type="line"/>
      <point x="433" y="408" type="line"/>
      <point x="48" y="274" type="line"/>
      <point x="20" y="357" type="line"/>
    </contour>
  </outline>
</glyph>
<glyph name="Eng" format="2">
  <advance width="814" height="962"/>
  <unicode hex="014A"/>
  <outline>
    <contour>
      <point x="767" y="-49" type="line" smooth="yes"/>
      <point x="767" y="-150"/>
      <point x="679" y="-214"/>
      <point x="539" y="-214" type="curve"/>
      <point x="514" y="-125" type="line"/>
      <point x="590" y="-114"/>
      <point x="656" y="-99"/>
      <point x="656" y="-48" type="curve" smooth="yes"/>
      <point x="656" y="0" type="line"/>
      <point x="152" y="543" type="line"/>
      <point x="152" y="0" type="line"/>
      <point x="42" y="0" type="line"/>
      <point x="42" y="700" type="line"/>
      <point x="155" y="700" type="line"/>
      <point x="656" y="156" type="line"/>
      <point x="656" y="700" type="line"/>
      <point x="767" y="700" type="line"/>
    </contour>
  </outline>
</glyph>
<glyph name="eng" format="2">
  <advance width="629"/>
  <unicode hex="014B"/>
  <outline>
    <contour>
      <point x="592" y="-71" type="line" smooth="yes"/>
      <point x="592" y="-161"/>
      <point x="493" y="-216"/>
      <point x="365" y="-216" type="curve"/>
      <point x="320" y="-127" type="line"/>
      <point x="425" y="-119"/>
      <point x="483" y="-97"/>
      <point x="483" y="-50" type="curve" smooth="yes"/>
      <point x="483" y="334" type="line" smooth="yes"/>
      <point x="483" y="391"/>
      <point x="433" y="410"/>
      <point x="353" y="410" type="curve" smooth="yes"/>
      <point x="290" y="410"/>
      <point x="222" y="405"/>
      <point x="149" y="387" type="curve"/>
      <point x="149" y="0" type="line"/>
      <point x="39" y="0" type="line"/>
      <point x="39" y="501" type="line"/>
      <point x="149" y="501" type="line"/>
      <point x="149" y="478" type="line"/>
      <point x="186" y="490"/>
      <point x="276" y="511"/>
      <point x="362" y="511" type="curve" smooth="yes"/>
      <point x="482" y="511"/>
      <point x="592" y="485"/>
      <point x="592" y="356" type="curve" smooth="yes"/>
    </contour>
  </outline>
</glyph>
<glyph name="Tbar" format="2">
  <advance width="633" height="962"/>
  <unicode hex="0166"/>
  <outline>
    <component base="T"/>
    <contour>
      <point x="17" y="414" type="line"/>
      <point x="616" y="414" type="line"/>
      <point x="616" y="324" type="line"/>
      <point x="17" y="324" type="line"/>
    </contour>
  </outline>
</glyph>
<glyph name="tbar" format="2">
  <advance width="417"/>
  <unicode hex="0167"/>
  <outline>
    <component base="t" xOffset="36.5"/>
    <contour>
      <point x="364" y="236" type="line"/>
      <point x="0" y="236" type="line"/>
      <point x="0" y="327" type="line"/>
      <point x="364" y="327" type="line"/>
    </contour>
  </outline>
</glyph>
<glyph name="dotlessj" format="1">
  <advance width="292" height="962"/>
  <unicode hex="0237"/>
  <outline>
    <contour>
      <point x="252" y="-61" type="line" smooth="yes"/>
      <point x="252" y="-151"/>
      <point x="200" y="-202"/>
      <point x="58" y="-216" type="curve"/>
      <point x="30" y="-126" type="line"/>
      <point x="94" y="-116"/>
      <point x="142" y="-100"/>
      <point x="142" y="-50" type="curve" smooth="yes"/>
      <point x="142" y="397" type="line"/>
      <point x="28" y="407" type="line"/>
      <point x="28" y="501" type="line"/>
      <point x="252" y="501" type="line"/>
    </contour>
  </outline>
</glyph>
<glyph name="caron" format="1">
  <advance width="267" height="962"/>
  <unicode hex="02C7"/>
  <outline>
    <contour>
      <point x="264" y="718" type="line"/>
      <point x="132" y="590" type="line"/>
      <point x="3" y="717" type="line"/>
      <point x="56" y="769" type="line"/>
      <point x="132" y="688" type="line"/>
      <point x="212" y="770" type="line"/>
    </contour>
  </outline>
</glyph>
<glyph name="dotaccent" format="2">
  <advance width="267" height="962"/>
  <unicode hex="02D9"/>
  <outline>
    <contour>
      <point x="134" y="776" type="curve" smooth="yes"/>
      <point x="167" y="776"/>
      <point x="193" y="752"/>
      <point x="193" y="718" type="curve" smooth="yes"/>
      <point x="193" y="685"/>
      <point x="167" y="658"/>
      <point x="134" y="658" type="curve" smooth="yes"/>
      <point x="100" y="658"/>
      <point x="73" y="685"/>
      <point x="73" y="718" type="curve" smooth="yes"/>
      <point x="73" y="752"/>
      <point x="100" y="776"/>
    </contour>
  </outline>
</glyph>
<glyph name="dotaccentcomb" format="1">
  <advance width="267" height="962"/>
  <unicode hex="0307"/>
  <outline>
    <contour>
      <point x="134" y="776" type="curve" smooth="yes"/>
      <point x="167" y="776"/>
      <point x="193" y="752"/>
      <point x="193" y="718" type="curve" smooth="yes"/>
      <point x="193" y="685"/>
      <point x="167" y="658"/>
      <point x="134" y="658" type="curve" smooth="yes"/>
      <point x="100" y="658"/>
      <point x="73" y="685"/>
      <point x="73" y="718" type="curve" smooth="yes"/>
      <point x="73" y="752"/>
      <point x="100" y="776"/>
    </contour>
  </outline>
</glyph>
<glyph name="dieresistonos" format="2">
  <advance width="267"/>
  <unicode hex="0385"/>
  <outline>
    <contour>
      <point x="114" y="695" type="curve" smooth="yes"/>
      <point x="114" y="662"/>
      <point x="88" y="636"/>
      <point x="54" y="636" type="curve" smooth="yes"/>
      <point x="21" y="636"/>
      <point x="-6" y="662"/>
      <point x="-6" y="695" type="curve" smooth="yes"/>
      <point x="-6" y="729"/>
      <point x="21" y="754"/>
      <point x="54" y="754" type="curve" smooth="yes"/>
      <point x="88" y="754"/>
      <point x="114" y="729"/>
    </contour>
    <contour>
      <point x="273" y="695" type="curve" smooth="yes"/>
      <point x="273" y="662"/>
      <point x="246" y="636"/>
      <point x="213" y="636" type="curve" smooth="yes"/>
      <point x="179" y="636"/>
      <point x="153" y="662"/>
      <point x="153" y="695" type="curve" smooth="yes"/>
      <point x="153" y="729"/>
      <point x="179" y="754"/>
      <point x="213" y="754" type="curve" smooth="yes"/>
      <point x="246" y="754"/>
      <point x="273" y="729"/>
    </contour>
    <contour>
      <point x="212" y="810" type="curve" smooth="yes"/>
      <point x="153" y="735" type="line"/>
      <point x="109" y="735" type="line"/>
      <point x="140" y="852" type="line" smooth="yes"/>
      <point x="148" y="880"/>
      <point x="178" y="897"/>
      <point x="205" y="883" type="curve" smooth="yes"/>
      <point x="232" y="870"/>
      <point x="230" y="832"/>
    </contour>
  </outline>
</glyph>
<glyph name="Gamma" format="1">
  <advance width="559" height="962"/>
  <unicode hex="0393"/>
  <outline>
    <contour>
      <point x="42" y="0" type="line"/>
      <point x="42" y="700" type="line"/>
      <point x="543" y="700" type="line"/>
      <point x="543" y="590" type="line"/>
      <point x="153" y="590" type="line"/>
      <point x="153" y="0" type="line"/>
    </contour>
  </outline>
</glyph>
<glyph name="Deltagreek" format="2">
  <advance width="772" height="962"/>
  <unicode hex="0394"/>
  <outline>
    <contour>
      <point x="753" y="0" type="line"/>
      <point x="20" y="0" type="line"/>
      <point x="308" y="700" type="line"/>
      <point x="462" y="700" type="line"/>
    </contour>
    <contour>
      <point x="187" y="101" type="line"/>
      <point x="589" y="101" type="line"/>
      <point x="385" y="589" type="line"/>
    </contour>
  </outline>
</glyph>
<glyph name="Xi" format="2">
  <advance width="822" height="962"/>
  <unicode hex="039E"/>
  <outline>
    <contour>
      <point x="23" y="596" type="line"/>
      <point x="56" y="671"/>
      <point x="104" y="700"/>
      <point x="224" y="700" type="curve" smooth="yes"/>
      <point x="750" y="700" type="line"/>
      <point x="709" y="590" type="line"/>
      <point x="225" y="590" type="line" smooth="yes"/>
      <point x="150" y="590"/>
      <point x="128" y="575"/>
      <point x="110" y="545" type="curve"/>
    </contour>
    <contour>
      <point x="612" y="307" type="line"/>
      <point x="212" y="307" type="line"/>
      <point x="212" y="414" type="line"/>
      <point x="612" y="414" type="line"/>
    </contour>
    <contour>
      <point x="561" y="101" type="line" smooth="yes"/>
      <point x="642" y="101"/>
      <point x="678" y="113"/>
      <point x="699" y="157" type="curve"/>
      <point x="790" y="107" type="line"/>
      <point x="757" y="32"/>
      <point x="710" y="0"/>
      <point x="591" y="0" type="curve" smooth="yes"/>
      <point x="62" y="0" type="line"/>
      <point x="100" y="101" type="line"/>
    </contour>
  </outline>
</glyph>
<glyph name="Pi" format="2">
  <advance width="734" height="962"/>
  <unicode hex="03A0"/>
  <outline>
    <contour>
      <point x="577" y="0" type="line"/>
      <point x="577" y="590" type="line"/>
      <point x="151" y="590" type="line"/>
      <point x="151" y="0" type="line"/>
      <point x="41" y="0" type="line"/>
      <point x="41" y="700" type="line"/>
      <point x="689" y="700" type="line"/>
      <point x="689" y="0" type="line"/>
    </contour>
  </outline>
</glyph>
<glyph name="Sigma" format="2">
  <advance width="762" height="962"/>
  <unicode hex="03A3"/>
  <outline>
    <contour>
      <point x="515" y="101" type="line" smooth="yes"/>
      <point x="593" y="101"/>
      <point x="618" y="111"/>
      <point x="637" y="151" type="curve"/>
      <point x="730" y="107" type="line"/>
      <point x="697" y="32"/>
      <point x="634" y="0"/>
      <point x="516" y="0" type="curve" smooth="yes"/>
      <point x="27" y="0" type="line"/>
      <point x="364" y="385" type="line"/>
      <point x="51" y="701" type="line"/>
      <point x="696" y="701" type="line"/>
      <point x="654" y="586" type="line"/>
      <point x="317" y="586" type="line"/>
      <point x="516" y="387" type="line"/>
      <point x="264" y="101" type="line"/>
    </contour>
  </outline>
</glyph>
<glyph name="iotatonos" format="1">
  <advance width="190" height="962"/>
  <unicode hex="03AF"/>
  <outline>
    <component base="dotlessi"/>
    <contour>
      <point x="173" y="628" type="curve" smooth="yes"/>
      <point x="115" y="553" type="line"/>
      <point x="71" y="553" type="line"/>
      <point x="101" y="669" type="line"/>
      <point x="107" y="696"/>
      <point x="139" y="713"/>
      <point x="166" y="698" type="curve" smooth="yes"/>
      <point x="190" y="684"/>
      <point x="191" y="651"/>
    </contour>
  </outline>
</glyph>
<glyph name="delta" format="1">
  <advance width="621" height="962"/>
  <unicode hex="03B4"/>
  <outline>
    <contour>
      <point x="304" y="590" type="line" smooth="yes"/>
      <point x="292" y="590"/>
      <point x="273" y="583"/>
      <point x="273" y="571" type="curve" smooth="yes"/>
      <point x="273" y="565"/>
      <point x="276" y="561"/>
      <point x="286" y="555" type="curve" smooth="yes"/>
      <point x="376" y="505"/>
      <point x="479" y="463"/>
      <point x="547" y="397" type="curve" smooth="yes"/>
      <point x="577" y="368"/>
      <point x="587" y="327"/>
      <point x="587" y="280" type="curve" smooth="yes"/>
      <point x="587" y="174" type="line" smooth="yes"/>
      <point x="587" y="38"/>
      <point x="486" y="-11"/>
      <point x="308" y="-11" type="curve" smooth="yes"/>
      <point x="113" y="-11"/>
      <point x="26" y="39"/>
      <point x="26" y="174" type="curve" smooth="yes"/>
      <point x="26" y="298" type="line" smooth="yes"/>
      <point x="26" y="383"/>
      <point x="72" y="454"/>
      <point x="207" y="472" type="curve"/>
      <point x="189" y="483" type="line" smooth="yes"/>
      <point x="161" y="500"/>
      <point x="123" y="536"/>
      <point x="123" y="592" type="curve" smooth="yes"/>
      <point x="123" y="662"/>
      <point x="185" y="702"/>
      <point x="289" y="702" type="curve" smooth="yes"/>
      <point x="535" y="702" type="line"/>
      <point x="511" y="590" type="line"/>
    </contour>
    <contour>
      <point x="475" y="269" type="line" smooth="yes"/>
      <point x="475" y="315"/>
      <point x="455" y="333"/>
      <point x="384" y="373" type="curve" smooth="yes"/>
      <point x="334" y="401" type="line"/>
      <point x="195" y="389"/>
      <point x="137" y="359"/>
      <point x="137" y="278" type="curve" smooth="yes"/>
      <point x="137" y="175" type="line" smooth="yes"/>
      <point x="137" y="115"/>
      <point x="181" y="93"/>
      <point x="303" y="93" type="curve" smooth="yes"/>
      <point x="427" y="93"/>
      <point x="475" y="115"/>
      <point x="475" y="175" type="curve" smooth="yes"/>
    </contour>
  </outline>
</glyph>
<glyph name="epsilon" format="2">
  <advance width="576"/>
  <unicode hex="03B5"/>
  <outline>
    <contour>
      <point x="447" y="402" type="line"/>
      <point x="403" y="409"/>
      <point x="324" y="417"/>
      <point x="265" y="415" type="curve" smooth="yes"/>
      <point x="205" y="413"/>
      <point x="165" y="402"/>
      <point x="165" y="368" type="curve" smooth="yes"/>
      <point x="165" y="339"/>
      <point x="201" y="302"/>
      <point x="308" y="302" type="curve" smooth="yes"/>
      <point x="444" y="302" type="line"/>
      <point x="407" y="206" type="line"/>
      <point x="224" y="206" type="line" smooth="yes"/>
      <point x="160" y="206"/>
      <point x="137" y="187"/>
      <point x="137" y="154" type="curve" smooth="yes"/>
      <point x="137" y="116"/>
      <point x="186" y="99"/>
      <point x="285" y="99" type="curve" smooth="yes"/>
      <point x="360" y="99"/>
      <point x="464" y="106"/>
      <point x="521" y="123" type="curve"/>
      <point x="549" y="23" type="line"/>
      <point x="469" y="1"/>
      <point x="382" y="-11"/>
      <point x="289" y="-11" type="curve" smooth="yes"/>
      <point x="101" y="-11"/>
      <point x="22" y="51"/>
      <point x="22" y="149" type="curve" smooth="yes"/>
      <point x="22" y="219"/>
      <point x="60" y="253"/>
      <point x="123" y="277" type="curve"/>
      <point x="73" y="303"/>
      <point x="48" y="342"/>
      <point x="55" y="393" type="curve" smooth="yes"/>
      <point x="65" y="463"/>
      <point x="127" y="509"/>
      <point x="276" y="512" type="curve" smooth="yes"/>
      <point x="330" y="513"/>
      <point x="385" y="507"/>
      <point x="443" y="497" type="curve"/>
    </contour>
  </outline>
</glyph>
<glyph name="zeta" format="2">
  <advance width="633"/>
  <unicode hex="03B6"/>
  <anchor x="320" y="775" name="top"/>
  <outline>
    <contour>
      <point x="611" y="600" type="line"/>
      <point x="535" y="567"/>
      <point x="457" y="521"/>
      <point x="387" y="471" type="curve" smooth="yes"/>
      <point x="291" y="403"/>
      <point x="148" y="304"/>
      <point x="148" y="196" type="curve" smooth="yes"/>
      <point x="148" y="166"/>
      <point x="159" y="140"/>
      <point x="201" y="120" type="curve" smooth="yes"/>
      <point x="281" y="83"/>
      <point x="459" y="92"/>
      <point x="574" y="92" type="curve"/>
      <point x="575" y="-216" type="line"/>
      <point x="463" y="-191" type="line"/>
      <point x="463" y="-6" type="line"/>
      <point x="333" y="-12"/>
      <point x="173" y="6"/>
      <point x="106" y="50" type="curve" smooth="yes"/>
      <point x="56" y="83"/>
      <point x="29" y="130"/>
      <point x="29" y="190" type="curve" smooth="yes"/>
      <point x="29" y="319"/>
      <point x="134" y="422"/>
      <point x="251" y="509" type="curve" smooth="yes"/>
      <point x="272" y="525"/>
      <point x="331" y="567"/>
      <point x="377" y="590" type="curve"/>
      <point x="134" y="590" type="line"/>
      <point x="134" y="700" type="line"/>
      <point x="561" y="700" type="line"/>
    </contour>
  </outline>
</glyph>
<glyph name="eta" format="2">
  <advance width="630" height="962"/>
  <unicode hex="03B7"/>
  <outline>
    <contour>
      <point x="481" y="344" type="line" smooth="yes"/>
      <point x="481" y="382"/>
      <point x="429" y="410"/>
      <point x="350" y="411" type="curve" smooth="yes"/>
      <point x="297" y="412"/>
      <point x="229" y="408"/>
      <point x="150" y="387" type="curve"/>
      <point x="150" y="0" type="line"/>
      <point x="38" y="0" type="line"/>
      <point x="38" y="501" type="line"/>
      <point x="150" y="501" type="line"/>
      <point x="150" y="478" type="line"/>
      <point x="184" y="490"/>
      <point x="268" y="511"/>
      <point x="354" y="511" type="curve" smooth="yes"/>
      <point x="472" y="511"/>
      <point x="592" y="485"/>
      <point x="592" y="356" type="curve" smooth="yes"/>
      <point x="592" y="-215" type="line"/>
      <point x="481" y="-191" type="line"/>
    </contour>
  </outline>
</glyph>
<glyph name="theta" format="1">
  <advance width="630" height="962"/>
  <unicode hex="03B8"/>
  <outline>
    <contour>
      <point x="305" y="710" type="curve" smooth="yes"/>
      <point x="496" y="710"/>
      <point x="593" y="643"/>
      <point x="593" y="516" type="curve" smooth="yes"/>
      <point x="593" y="180" type="line" smooth="yes"/>
      <point x="593" y="53"/>
      <point x="503" y="-12"/>
      <point x="314" y="-12" type="curve" smooth="yes"/>
      <point x="128" y="-12"/>
      <point x="32" y="55"/>
      <point x="32" y="180" type="curve" smooth="yes"/>
      <point x="32" y="288" type="line" smooth="yes"/>
      <point x="32" y="366"/>
      <point x="65" y="403"/>
      <point x="100" y="424" type="curve"/>
      <point x="58" y="469"/>
      <point x="49" y="502"/>
      <point x="49" y="548" type="curve" smooth="yes"/>
      <point x="49" y="646"/>
      <point x="154" y="710"/>
    </contour>
    <contour>
      <point x="481" y="507" type="line" smooth="yes"/>
      <point x="481" y="569"/>
      <point x="425" y="607"/>
      <point x="310" y="607" type="curve" smooth="yes"/>
      <point x="203" y="607"/>
      <point x="161" y="580"/>
      <point x="161" y="535" type="curve" smooth="yes"/>
      <point x="161" y="512"/>
      <point x="173" y="480"/>
      <point x="265" y="445" type="curve" smooth="yes"/>
      <point x="314" y="427"/>
      <point x="384" y="413"/>
      <point x="481" y="407" type="curve"/>
    </contour>
    <contour>
      <point x="310" y="93" type="curve" smooth="yes"/>
      <point x="435" y="93"/>
      <point x="481" y="126"/>
      <point x="481" y="172" type="curve" smooth="yes"/>
      <point x="481" y="314" type="line"/>
      <point x="394" y="317"/>
      <point x="275" y="334"/>
      <point x="185" y="368" type="curve"/>
      <point x="156" y="357"/>
      <point x="143" y="335"/>
      <point x="143" y="300" type="curve" smooth="yes"/>
      <point x="143" y="172" type="line" smooth="yes"/>
      <point x="143" y="127"/>
      <point x="194" y="93"/>
    </contour>
  </outline>
</glyph>
<glyph name="nu" format="2">
  <advance width="619"/>
  <unicode hex="03BD"/>
  <outline>
    <contour>
      <point x="17" y="501" type="line"/>
      <point x="135" y="501" type="line"/>
      <point x="306" y="116" type="line"/>
      <point x="476" y="501" type="line"/>
      <point x="592" y="501" type="line"/>
      <point x="362" y="0" type="line"/>
      <point x="246" y="0" type="line"/>
    </contour>
  </outline>
</glyph>
<glyph name="xi" format="1">
  <advance width="615" height="962"/>
  <unicode hex="03BE"/>
  <outline>
    <contour>
      <point x="520" y="588" type="line"/>
      <point x="307" y="588" type="line" smooth="yes"/>
      <point x="250" y="588"/>
      <point x="233" y="563"/>
      <point x="233" y="531" type="curve" smooth="yes"/>
      <point x="233" y="476"/>
      <point x="346" y="439"/>
      <point x="457" y="412" type="curve" smooth="yes"/>
      <point x="532" y="393" type="line"/>
      <point x="504" y="312" type="line"/>
      <point x="209" y="312" type="line" smooth="yes"/>
      <point x="164" y="312"/>
      <point x="140" y="297"/>
      <point x="140" y="258" type="curve" smooth="yes"/>
      <point x="140" y="175" type="line" smooth="yes"/>
      <point x="140" y="125"/>
      <point x="160" y="87"/>
      <point x="274" y="87" type="curve" smooth="yes"/>
      <point x="368" y="87"/>
      <point x="477" y="91"/>
      <point x="571" y="93" type="curve"/>
      <point x="571" y="-217" type="line"/>
      <point x="460" y="-192" type="line"/>
      <point x="460" y="-7" type="line"/>
      <point x="431" y="-8"/>
      <point x="339" y="-10"/>
      <point x="294" y="-10" type="curve" smooth="yes"/>
      <point x="127" y="-10"/>
      <point x="27" y="20"/>
      <point x="27" y="156" type="curve" smooth="yes"/>
      <point x="27" y="256" type="line" smooth="yes"/>
      <point x="27" y="360"/>
      <point x="98" y="405"/>
      <point x="207" y="405" type="curve" smooth="yes"/>
      <point x="228" y="405" type="line"/>
      <point x="140" y="439"/>
      <point x="120" y="501"/>
      <point x="120" y="550" type="curve" smooth="yes"/>
      <point x="120" y="655"/>
      <point x="200" y="702"/>
      <point x="315" y="702" type="curve" smooth="yes"/>
      <point x="558" y="702" type="line"/>
    </contour>
  </outline>
</glyph>
<glyph name="pi" format="2">
  <advance width="658"/>
  <unicode hex="03C0"/>
  <outline>
    <contour>
      <point x="604" y="116" type="line" smooth="yes"/>
      <point x="604" y="85"/>
      <point x="625" y="72"/>
      <point x="649" y="62" type="curve"/>
      <point x="592" y="-17" type="line"/>
      <point x="595" y="-16"/>
      <point x="493" y="14"/>
      <point x="493" y="104" type="curve" smooth="yes"/>
      <point x="493" y="397" type="line"/>
      <point x="150" y="397" type="line"/>
      <point x="150" y="0" type="line"/>
      <point x="39" y="0" type="line"/>
      <point x="39" y="501" type="line"/>
      <point x="604" y="501" type="line"/>
    </contour>
  </outline>
</glyph>
<glyph name="rho" format="1">
  <advance width="623" height="962"/>
  <unicode hex="03C1"/>
  <outline>
    <contour>
      <point x="590" y="158" type="line" smooth="yes"/>
      <point x="590" y="26"/>
      <point x="491" y="-17"/>
      <point x="325" y="-17" type="curve" smooth="yes"/>
      <point x="264" y="-17"/>
      <point x="192" y="-7"/>
      <point x="148" y="7" type="curve"/>
      <point x="148" y="-217" type="line"/>
      <point x="35" y="-193" type="line"/>
      <point x="35" y="322" type="line" smooth="yes"/>
      <point x="35" y="449"/>
      <point x="126" y="508"/>
      <point x="319" y="508" type="curve" smooth="yes"/>
      <point x="501" y="508"/>
      <point x="590" y="447"/>
      <point x="590" y="322" type="curve" smooth="yes"/>
    </contour>
    <contour>
      <point x="479" y="318" type="line" smooth="yes"/>
      <point x="479" y="376"/>
      <point x="420" y="397"/>
      <point x="314" y="397" type="curve" smooth="yes"/>
      <point x="209" y="397"/>
      <point x="148" y="378"/>
      <point x="148" y="318" type="curve" smooth="yes"/>
      <point x="148" y="133" type="line" smooth="yes"/>
      <point x="148" y="97"/>
      <point x="263" y="82"/>
      <point x="336" y="82" type="curve" smooth="yes"/>
      <point x="430" y="82"/>
      <point x="479" y="110"/>
      <point x="479" y="156" type="curve" smooth="yes"/>
    </contour>
  </outline>
</glyph>
<glyph name="sigma1" format="2">
  <advance width="496"/>
  <unicode hex="03C2"/>
  <outline>
    <contour>
      <point x="135" y="232" type="line" smooth="yes"/>
      <point x="135" y="191"/>
      <point x="177" y="177"/>
      <point x="212" y="160" type="curve" smooth="yes"/>
      <point x="315" y="110" type="line" smooth="yes"/>
      <point x="364" y="86"/>
      <point x="417" y="53"/>
      <point x="417" y="-13" type="curve" smooth="yes"/>
      <point x="417" y="-73"/>
      <point x="369" y="-114"/>
      <point x="317" y="-148" type="curve"/>
      <point x="255" y="-83" type="line"/>
      <point x="277" y="-69"/>
      <point x="303" y="-47"/>
      <point x="303" y="-27" type="curve" smooth="yes"/>
      <point x="303" y="1"/>
      <point x="285" y="11"/>
      <point x="247" y="29" type="curve" smooth="yes"/>
      <point x="132" y="84" type="line" smooth="yes"/>
      <point x="77" y="110"/>
      <point x="24" y="159"/>
      <point x="24" y="233" type="curve" smooth="yes"/>
      <point x="24" y="340" type="line" smooth="yes"/>
      <point x="24" y="438"/>
      <point x="104" y="507"/>
      <point x="290" y="507" type="curve" smooth="yes"/>
      <point x="351" y="507"/>
      <point x="417" y="495"/>
      <point x="468" y="471" type="curve"/>
      <point x="423" y="379" type="line"/>
      <point x="390" y="391"/>
      <point x="318" y="399"/>
      <point x="267" y="399" type="curve" smooth="yes"/>
      <point x="183" y="399"/>
      <point x="135" y="376"/>
      <point x="135" y="336" type="curve" smooth="yes"/>
    </contour>
  </outline>
</glyph>
<glyph name="upsilon" format="2">
  <advance width="628"/>
  <unicode hex="03C5"/>
  <outline>
    <contour>
      <point x="591" y="180" type="line" smooth="yes"/>
      <point x="591" y="62"/>
      <point x="503" y="-10"/>
      <point x="319" y="-10" type="curve" smooth="yes"/>
      <point x="115" y="-10"/>
      <point x="34" y="78"/>
      <point x="34" y="180" type="curve" smooth="yes"/>
      <point x="34" y="501" type="line"/>
      <point x="145" y="501" type="line"/>
      <point x="145" y="177" type="line" smooth="yes"/>
      <point x="145" y="133"/>
      <point x="196" y="94"/>
      <point x="319" y="94" type="curve" smooth="yes"/>
      <point x="430" y="94"/>
      <point x="479" y="129"/>
      <point x="479" y="177" type="curve" smooth="yes"/>
      <point x="479" y="501" type="line"/>
      <point x="591" y="501" type="line"/>
    </contour>
  </outline>
</glyph>
<glyph name="psi" format="1">
  <advance width="854" height="962"/>
  <unicode hex="03C8"/>
  <outline>
    <contour>
      <point x="775" y="507" type="line"/>
      <point x="814" y="473"/>
      <point x="823" y="440"/>
      <point x="823" y="388" type="curve" smooth="yes"/>
      <point x="823" y="190" type="line" smooth="yes"/>
      <point x="823" y="68"/>
      <point x="751" y="-7"/>
      <point x="558" y="-7" type="curve" smooth="yes"/>
      <point x="485" y="-7" type="line"/>
      <point x="485" y="-217" type="line"/>
      <point x="374" y="-191" type="line"/>
      <point x="374" y="-7" type="line"/>
      <point x="293" y="-7" type="line" smooth="yes"/>
      <point x="107" y="-7"/>
      <point x="31" y="58"/>
      <point x="31" y="180" type="curve" smooth="yes"/>
      <point x="31" y="501" type="line"/>
      <point x="142" y="501" type="line"/>
      <point x="142" y="193" type="line" smooth="yes"/>
      <point x="142" y="127"/>
      <point x="174" y="101"/>
      <point x="260" y="101" type="curve" smooth="yes"/>
      <point x="374" y="101" type="line"/>
      <point x="374" y="501" type="line"/>
      <point x="485" y="501" type="line"/>
      <point x="485" y="101" type="line"/>
      <point x="598" y="101" type="line" smooth="yes"/>
      <point x="673" y="101"/>
      <point x="712" y="125"/>
      <point x="712" y="193" type="curve" smooth="yes"/>
      <point x="712" y="378" type="line" smooth="yes"/>
      <point x="712" y="425"/>
      <point x="708" y="450"/>
      <point x="673" y="479" type="curve"/>
    </contour>
  </outline>
</glyph>
<glyph name="uni0404" format="2">
  <advance width="608" height="962"/>
  <unicode hex="0404"/>
  <outline>
    <component base="C"/>
    <contour>
      <point x="140" y="309" type="line"/>
      <point x="140" y="414" type="line"/>
      <point x="426" y="414" type="line"/>
      <point x="380" y="309" type="line"/>
    </contour>
  </outline>
</glyph>
<glyph name="uni040A" format="2">
  <advance width="1212" height="962"/>
  <unicode hex="040A"/>
  <outline>
    <contour>
      <point x="972" y="411" type="line" smooth="yes"/>
      <point x="1081" y="411"/>
      <point x="1181" y="373"/>
      <point x="1181" y="271" type="curve" smooth="yes"/>
      <point x="1181" y="149" type="line" smooth="yes"/>
      <point x="1181" y="11"/>
      <point x="1052" y="-11"/>
      <point x="872" y="-11" type="curve" smooth="yes"/>
      <point x="738" y="-11"/>
      <point x="615" y="0"/>
      <point x="610" y="0" type="curve"/>
      <point x="610" y="307" type="line"/>
      <point x="153" y="307" type="line"/>
      <point x="153" y="0" type="line"/>
      <point x="42" y="0" type="line"/>
      <point x="42" y="701" type="line"/>
      <point x="153" y="701" type="line"/>
      <point x="153" y="412" type="line"/>
      <point x="610" y="412" type="line"/>
      <point x="610" y="701" type="line"/>
      <point x="721" y="701" type="line"/>
      <point x="721" y="411" type="line"/>
    </contour>
    <contour>
      <point x="1071" y="175" type="curve" smooth="yes"/>
      <point x="1071" y="253" type="line" smooth="yes"/>
      <point x="1071" y="291"/>
      <point x="1033" y="306"/>
      <point x="988" y="306" type="curve" smooth="yes"/>
      <point x="721" y="306" type="line"/>
      <point x="721" y="95" type="line"/>
      <point x="745" y="94"/>
      <point x="880" y="91"/>
      <point x="898" y="91" type="curve" smooth="yes"/>
      <point x="1035" y="91"/>
      <point x="1071" y="125"/>
    </contour>
  </outline>
  <guideline angle="0" x="0" y="980"/>
  <guideline angle="0" x="0" y="991"/>
  <guideline angle="0" x="0" y="1057"/>
</glyph>
<glyph name="uni040F" format="2">
  <advance width="733"/>
  <unicode hex="040F"/>
  <outline>
    <contour>
      <point x="689" y="700" type="line"/>
      <point x="689" y="0" type="line"/>
      <point x="421" y="0" type="line"/>
      <point x="410" y="-125" type="line"/>
      <point x="318" y="-125" type="line"/>
      <point x="309" y="0" type="line"/>
      <point x="43" y="0" type="line"/>
      <point x="43" y="700" type="line"/>
      <point x="154" y="700" type="line"/>
      <point x="154" y="110" type="line"/>
      <point x="578" y="110" type="line"/>
      <point x="578" y="700" type="line"/>
    </contour>
  </outline>
</glyph>
<glyph name="uni0416" format="1">
  <advance width="1074" height="962"/>
  <unicode hex="0416"/>
  <outline>
    <contour>
      <point x="924" y="0" type="line"/>
      <point x="715" y="304" type="line"/>
      <point x="592" y="304" type="line"/>
      <point x="592" y="0" type="line"/>
      <point x="481" y="0" type="line"/>
      <point x="481" y="304" type="line"/>
      <point x="358" y="304" type="line"/>
      <point x="155" y="0" type="line"/>
      <point x="18" y="0" type="line"/>
      <point x="255" y="351" type="line"/>
      <point x="42" y="700" type="line"/>
      <point x="178" y="700" type="line"/>
      <point x="361" y="395" type="line"/>
      <point x="481" y="395" type="line"/>
      <point x="481" y="700" type="line"/>
      <point x="592" y="700" type="line"/>
      <point x="592" y="395" type="line"/>
      <point x="712" y="395" type="line"/>
      <point x="894" y="700" type="line"/>
      <point x="1030" y="700" type="line"/>
      <point x="812" y="351" type="line"/>
      <point x="1054" y="0" type="line"/>
    </contour>
  </outline>
</glyph>
<glyph name="uni0417" format="1">
  <advance width="671" height="962"/>
  <unicode hex="0417"/>
  <outline>
    <contour>
      <point x="144" y="412" type="line"/>
      <point x="290" y="412" type="line" smooth="yes"/>
      <point x="406" y="412"/>
      <point x="480" y="451"/>
      <point x="480" y="518" type="curve" smooth="yes"/>
      <point x="480" y="582"/>
      <point x="424" y="607"/>
      <point x="308" y="607" type="curve" smooth="yes"/>
      <point x="251" y="607"/>
      <point x="185" y="598"/>
      <point x="138" y="587" type="curve"/>
      <point x="93" y="675" type="line"/>
      <point x="165" y="699"/>
      <point x="237" y="710"/>
      <point x="309" y="710" type="curve" smooth="yes"/>
      <point x="494" y="710"/>
      <point x="598" y="655"/>
      <point x="598" y="531" type="curve" smooth="yes"/>
      <point x="598" y="464"/>
      <point x="565" y="417"/>
      <point x="504" y="387" type="curve"/>
      <point x="577" y="358"/>
      <point x="640" y="299"/>
      <point x="640" y="210" type="curve" smooth="yes"/>
      <point x="640" y="95"/>
      <point x="547" y="-12"/>
      <point x="256" y="-12" type="curve" smooth="yes"/>
      <point x="135" y="-12"/>
      <point x="15" y="21"/>
      <point x="15" y="21" type="curve"/>
      <point x="50" y="116" type="line"/>
      <point x="50" y="116"/>
      <point x="181" y="93"/>
      <point x="295" y="93" type="curve" smooth="yes"/>
      <point x="445" y="93"/>
      <point x="522" y="139"/>
      <point x="522" y="204" type="curve" smooth="yes"/>
      <point x="522" y="266"/>
      <point x="456" y="307"/>
      <point x="350" y="307" type="curve" smooth="yes"/>
      <point x="196" y="307" type="line"/>
    </contour>
  </outline>
</glyph>
<glyph name="uni0418" format="2">
  <advance width="823"/>
  <unicode hex="0418"/>
  <outline>
    <contour>
      <point x="41" y="700" type="line"/>
      <point x="153" y="700" type="line"/>
      <point x="153" y="156" type="line"/>
      <point x="669" y="700" type="line"/>
      <point x="781" y="700" type="line"/>
      <point x="781" y="0" type="line"/>
      <point x="669" y="0" type="line"/>
      <point x="669" y="543" type="line"/>
      <point x="153" y="0" type="line"/>
      <point x="41" y="0" type="line"/>
    </contour>
  </outline>
</glyph>
<glyph name="uni041B" format="2">
  <advance width="810" height="962"/>
  <unicode hex="041B"/>
  <outline>
    <contour>
      <point x="565" y="700" type="curve" smooth="yes"/>
      <point x="773" y="700" type="line"/>
      <point x="773" y="-1" type="line"/>
      <point x="663" y="-1" type="line"/>
      <point x="663" y="606" type="line"/>
      <point x="580" y="606" type="line" smooth="yes"/>
      <point x="525" y="606"/>
      <point x="491" y="601"/>
      <point x="468" y="551" type="curve" smooth="yes"/>
      <point x="283" y="143" type="line" smooth="yes"/>
      <point x="232" y="31"/>
      <point x="191" y="-3"/>
      <point x="79" y="-23" type="curve"/>
      <point x="24" y="30" type="line"/>
      <point x="83" y="51"/>
      <point x="119" y="59"/>
      <point x="151" y="128" type="curve" smooth="yes"/>
      <point x="347" y="556" type="line" smooth="yes"/>
      <point x="376" y="620"/>
      <point x="409" y="700"/>
    </contour>
  </outline>
</glyph>
<glyph name="uni0423" format="2">
  <advance width="754"/>
  <unicode hex="0423"/>
  <outline>
    <contour>
      <point x="608" y="700" type="line"/>
      <point x="738" y="700" type="line"/>
      <point x="378" y="143" type="line" smooth="yes"/>
      <point x="306" y="32"/>
      <point x="257" y="-2"/>
      <point x="120" y="-22" type="curve"/>
      <point x="75" y="46" type="line"/>
      <point x="139" y="58"/>
      <point x="203" y="75"/>
      <point x="247" y="142" type="curve" smooth="yes"/>
      <point x="323" y="258" type="line"/>
      <point x="12" y="700" type="line"/>
      <point x="145" y="700" type="line"/>
      <point x="386" y="356" type="line"/>
    </contour>
  </outline>
</glyph>
<glyph name="uni0426" format="2">
  <advance width="824"/>
  <unicode hex="0426"/>
  <outline>
    <contour>
      <point x="688" y="110" type="line"/>
      <point x="802" y="110" type="line"/>
      <point x="802" y="-125" type="line"/>
      <point x="705" y="-125" type="line"/>
      <point x="684" y="0" type="line"/>
      <point x="40" y="0" type="line"/>
      <point x="40" y="700" type="line"/>
      <point x="152" y="700" type="line"/>
      <point x="152" y="110" type="line"/>
      <point x="576" y="110" type="line"/>
      <point x="576" y="700" type="line"/>
      <point x="688" y="700" type="line"/>
    </contour>
  </outline>
</glyph>
<glyph name="uni0427" format="2">
  <advance width="711"/>
  <unicode hex="0427"/>
  <outline>
    <contour>
      <point x="689" y="700" type="line"/>
      <point x="689" y="0" type="line"/>
      <point x="578" y="0" type="line"/>
      <point x="578" y="288" type="line"/>
      <point x="492" y="245"/>
      <point x="405" y="241"/>
      <point x="337" y="241" type="curve" smooth="yes"/>
      <point x="147" y="241"/>
      <point x="21" y="309"/>
      <point x="21" y="441" type="curve" smooth="yes"/>
      <point x="21" y="700" type="line"/>
      <point x="134" y="700" type="line"/>
      <point x="134" y="453" type="line" smooth="yes"/>
      <point x="134" y="374"/>
      <point x="203" y="341"/>
      <point x="366" y="341" type="curve" smooth="yes"/>
      <point x="479" y="341"/>
      <point x="578" y="379"/>
      <point x="578" y="436" type="curve" smooth="yes"/>
      <point x="578" y="700" type="line"/>
    </contour>
  </outline>
</glyph>
<glyph name="uni0428" format="2">
  <advance width="922"/>
  <unicode hex="0428"/>
  <outline>
    <contour>
      <point x="766" y="700" type="line"/>
      <point x="878" y="700" type="line"/>
      <point x="878" y="0" type="line"/>
      <point x="44" y="0" type="line"/>
      <point x="44" y="700" type="line"/>
      <point x="155" y="700" type="line"/>
      <point x="155" y="110" type="line"/>
      <point x="406" y="110" type="line"/>
      <point x="406" y="700" type="line"/>
      <point x="516" y="700" type="line"/>
      <point x="516" y="110" type="line"/>
      <point x="766" y="110" type="line"/>
    </contour>
  </outline>
</glyph>
<glyph name="uni042C" format="1">
  <advance width="648" height="962"/>
  <unicode hex="042C"/>
  <outline>
    <contour>
      <point x="421" y="411" type="line" smooth="yes"/>
      <point x="532" y="411"/>
      <point x="621" y="372"/>
      <point x="621" y="264" type="curve" smooth="yes"/>
      <point x="621" y="156" type="line" smooth="yes"/>
      <point x="621" y="8"/>
      <point x="503" y="-11"/>
      <point x="311" y="-11" type="curve" smooth="yes"/>
      <point x="210" y="-11"/>
      <point x="42" y="0"/>
      <point x="42" y="0" type="curve"/>
      <point x="42" y="700" type="line"/>
      <point x="154" y="700" type="line"/>
      <point x="154" y="411" type="line"/>
    </contour>
    <contour>
      <point x="510" y="174" type="curve" smooth="yes"/>
      <point x="510" y="240" type="line" smooth="yes"/>
      <point x="510" y="288"/>
      <point x="474" y="303"/>
      <point x="421" y="303" type="curve" smooth="yes"/>
      <point x="154" y="303" type="line"/>
      <point x="154" y="95" type="line"/>
      <point x="152" y="95"/>
      <point x="296" y="91"/>
      <point x="334" y="91" type="curve" smooth="yes"/>
      <point x="497" y="91"/>
      <point x="510" y="124"/>
    </contour>
  </outline>
</glyph>
<glyph name="uni042D" format="2">
  <advance width="608"/>
  <unicode hex="042D"/>
  <outline>
    <contour>
      <point x="106" y="582.2" type="curve"/>
      <point x="71" y="676.35" type="line"/>
      <point x="143" y="700.8"/>
      <point x="215" y="712"/>
      <point x="294.4" y="712" type="curve" smooth="yes"/>
      <point x="428.05" y="712"/>
      <point x="578" y="681"/>
      <point x="578" y="519.85" type="curve" smooth="yes"/>
      <point x="578" y="182" type="line" smooth="yes"/>
      <point x="578" y="13.65"/>
      <point x="417.3" y="-12"/>
      <point x="280" y="-12" type="curve" smooth="yes"/>
      <point x="203" y="-12"/>
      <point x="122" y="1"/>
      <point x="35" y="23" type="curve"/>
      <point x="59" y="128" type="line"/>
      <point x="76" y="123"/>
      <point x="179" y="101"/>
      <point x="271" y="101" type="curve" smooth="yes"/>
      <point x="361" y="101"/>
      <point x="465" y="100.8"/>
      <point x="465" y="216" type="curve" smooth="yes"/>
      <point x="465" y="309" type="line"/>
      <point x="261" y="309" type="line"/>
      <point x="224" y="414" type="line"/>
      <point x="465" y="414" type="line"/>
      <point x="465" y="497.1" type="line" smooth="yes"/>
      <point x="465" y="605.85"/>
      <point x="334.5" y="599"/>
      <point x="257" y="599" type="curve" smooth="yes"/>
      <point x="211" y="599"/>
      <point x="145" y="592.05"/>
    </contour>
  </outline>
</glyph>
<glyph name="uni042E" format="2">
  <advance width="996"/>
  <unicode hex="042E"/>
  <outline>
    <component base="O" xOffset="295.5"/>
    <component base="I" xOffset="-6"/>
    <contour>
      <point x="386" y="399" type="line"/>
      <point x="386" y="307" type="line"/>
      <point x="159" y="307" type="line"/>
      <point x="159" y="399" type="line"/>
    </contour>
  </outline>
</glyph>
<glyph name="uni0432" format="2">
  <advance width="638" height="962"/>
  <unicode hex="0432"/>
  <outline>
    <contour>
      <point x="523" y="276" type="curve"/>
      <point x="576" y="254"/>
      <point x="609" y="213"/>
      <point x="609" y="150" type="curve" smooth="yes"/>
      <point x="609" y="49"/>
      <point x="534" y="-11"/>
      <point x="345" y="-11" type="curve" smooth="yes"/>
      <point x="252" y="-11"/>
      <point x="34" y="0"/>
      <point x="34" y="0" type="curve"/>
      <point x="34" y="501" type="line"/>
      <point x="34" y="501"/>
      <point x="153" y="512"/>
      <point x="332" y="512" type="curve" smooth="yes"/>
      <point x="509" y="512"/>
      <point x="581" y="469"/>
      <point x="581" y="376" type="curve" smooth="yes"/>
      <point x="581" y="329"/>
      <point x="562" y="296"/>
    </contour>
    <contour>
      <point x="391" y="415" type="curve" smooth="yes"/>
      <point x="296" y="416"/>
      <point x="204" y="415"/>
      <point x="145" y="413" type="curve"/>
      <point x="145" y="302" type="line"/>
      <point x="370" y="302" type="line" smooth="yes"/>
      <point x="445" y="302"/>
      <point x="468" y="333"/>
      <point x="468" y="362" type="curve" smooth="yes"/>
      <point x="468" y="406"/>
      <point x="424" y="415"/>
    </contour>
    <contour>
      <point x="395" y="102" type="curve" smooth="yes"/>
      <point x="443" y="102"/>
      <point x="496" y="114"/>
      <point x="496" y="156" type="curve" smooth="yes"/>
      <point x="496" y="189"/>
      <point x="462" y="206"/>
      <point x="418" y="206" type="curve" smooth="yes"/>
      <point x="145" y="206" type="line"/>
      <point x="145" y="104" type="line"/>
      <point x="198" y="103"/>
      <point x="362" y="102"/>
    </contour>
  </outline>
</glyph>
<glyph name="uni0434" format="2">
  <advance width="770" height="962"/>
  <unicode hex="0434"/>
  <outline>
    <contour>
      <point x="675" y="109" type="line"/>
      <point x="759" y="109" type="line"/>
      <point x="759" y="-126" type="line"/>
      <point x="660" y="-126" type="line"/>
      <point x="644" y="-1" type="line"/>
      <point x="121" y="-1" type="line"/>
      <point x="101" y="-126" type="line"/>
      <point x="9" y="-126" type="line"/>
      <point x="9" y="109" type="line"/>
      <point x="96" y="109" type="line"/>
      <point x="203" y="350" type="line" smooth="yes"/>
      <point x="232" y="415"/>
      <point x="257" y="501"/>
      <point x="428" y="501" type="curve" smooth="yes"/>
      <point x="675" y="501" type="line"/>
    </contour>
    <contour>
      <point x="221" y="109" type="line"/>
      <point x="565" y="109" type="line"/>
      <point x="565" y="404" type="line"/>
      <point x="446" y="404" type="line" smooth="yes"/>
      <point x="382" y="404"/>
      <point x="345" y="396"/>
      <point x="323" y="345" type="curve" smooth="yes"/>
    </contour>
  </outline>
</glyph>
<glyph name="uni0436" format="2">
  <advance width="797" height="962"/>
  <unicode hex="0436"/>
  <outline>
    <contour>
      <point x="774" y="500" type="line"/>
      <point x="641" y="249" type="line"/>
      <point x="779" y="0" type="line"/>
      <point x="650" y="0" type="line"/>
      <point x="540" y="204" type="line"/>
      <point x="452" y="204" type="line"/>
      <point x="452" y="0" type="line"/>
      <point x="341" y="0" type="line"/>
      <point x="341" y="204" type="line"/>
      <point x="255" y="204" type="line"/>
      <point x="143" y="0" type="line"/>
      <point x="15" y="0" type="line"/>
      <point x="152" y="248" type="line"/>
      <point x="20" y="500" type="line"/>
      <point x="146" y="500" type="line"/>
      <point x="251" y="295" type="line"/>
      <point x="341" y="295" type="line"/>
      <point x="341" y="500" type="line"/>
      <point x="452" y="500" type="line"/>
      <point x="452" y="295" type="line"/>
      <point x="541" y="295" type="line"/>
      <point x="649" y="500" type="line"/>
    </contour>
  </outline>
</glyph>
<glyph name="uni0438" format="1">
  <advance width="631" height="962"/>
  <unicode hex="0438"/>
  <outline>
    <contour>
      <point x="149" y="500" type="line"/>
      <point x="149" y="143" type="line"/>
      <point x="480" y="500" type="line"/>
      <point x="592" y="500" type="line"/>
      <point x="592" y="-1" type="line"/>
      <point x="480" y="-1" type="line"/>
      <point x="480" y="354" type="line"/>
      <point x="149" y="-1" type="line"/>
      <point x="39" y="-1" type="line"/>
      <point x="39" y="500" type="line"/>
    </contour>
  </outline>
</glyph>
<glyph name="uni043B" format="2">
  <advance width="734" height="962"/>
  <unicode hex="043B"/>
  <outline>
    <contour>
      <point x="459" y="500" type="curve" smooth="yes"/>
      <point x="692" y="500" type="line"/>
      <point x="692" y="1" type="line"/>
      <point x="582" y="1" type="line"/>
      <point x="582" y="403" type="line"/>
      <point x="451" y="403" type="line" smooth="yes"/>
      <point x="376" y="403"/>
      <point x="356" y="383"/>
      <point x="334" y="332" type="curve" smooth="yes"/>
      <point x="250" y="141" type="line" smooth="yes"/>
      <point x="201" y="29"/>
      <point x="148" y="-4"/>
      <point x="56" y="-24" type="curve"/>
      <point x="-1" y="29" type="line"/>
      <point x="58" y="50"/>
      <point x="87" y="58"/>
      <point x="118" y="126" type="curve" smooth="yes"/>
      <point x="220" y="350" type="line" smooth="yes"/>
      <point x="248" y="414"/>
      <point x="279" y="500"/>
    </contour>
  </outline>
</glyph>
<glyph name="uni043C" format="1">
  <advance width="847" height="962"/>
  <unicode hex="043C"/>
  <outline>
    <contour>
      <point x="683" y="500" type="line"/>
      <point x="807" y="500" type="line"/>
      <point x="807" y="-1" type="line"/>
      <point x="697" y="-1" type="line"/>
      <point x="697" y="330" type="line"/>
      <point x="481" y="-1" type="line"/>
      <point x="362" y="-1" type="line"/>
      <point x="148" y="329" type="line"/>
      <point x="148" y="-1" type="line"/>
      <point x="36" y="-1" type="line"/>
      <point x="36" y="500" type="line"/>
      <point x="161" y="500" type="line"/>
      <point x="423" y="101" type="line"/>
    </contour>
  </outline>
</glyph>
<glyph name="uni043D" format="2">
  <advance width="624" height="962"/>
  <unicode hex="043D"/>
  <outline>
    <contour>
      <point x="478" y="326" type="line"/>
      <point x="478" y="500" type="line"/>
      <point x="589" y="500" type="line"/>
      <point x="589" y="0" type="line"/>
      <point x="478" y="0" type="line"/>
      <point x="478" y="221" type="line"/>
      <point x="148" y="221" type="line"/>
      <point x="148" y="0" type="line"/>
      <point x="36" y="0" type="line"/>
      <point x="36" y="500" type="line"/>
      <point x="148" y="500" type="line"/>
      <point x="148" y="326" type="line"/>
    </contour>
  </outline>
</glyph>
<glyph name="uni0446" format="2">
  <advance width="720"/>
  <unicode hex="0446"/>
  <outline>
    <contour>
      <point x="592" y="500" type="line"/>
      <point x="592" y="110" type="line"/>
      <point x="700" y="110" type="line"/>
      <point x="700" y="-125" type="line"/>
      <point x="601" y="-125" type="line"/>
      <point x="589" y="0" type="line"/>
      <point x="37" y="0" type="line"/>
      <point x="37" y="500" type="line"/>
      <point x="149" y="500" type="line"/>
      <point x="149" y="110" type="line"/>
      <point x="481" y="110" type="line"/>
      <point x="481" y="500" type="line"/>
    </contour>
  </outline>
</glyph>
<glyph name="uni0449" format="1">
  <advance width="970" height="962"/>
  <unicode hex="0449"/>
  <outline>
    <component base="uni0448"/>
    <contour>
      <point x="780" y="110" type="line"/>
      <point x="946" y="110" type="line"/>
      <point x="946" y="-125" type="line"/>
      <point x="850" y="-125" type="line"/>
      <point x="836" y="0" type="line"/>
      <point x="780" y="0" type="line"/>
    </contour>
  </outline>
</glyph>
<glyph name="uni044A" format="2">
  <advance width="766"/>
  <unicode hex="044A"/>
  <outline>
    <component base="uni044C" xOffset="120"/>
    <contour>
      <point x="0" y="500" type="line"/>
      <point x="216" y="500" type="line"/>
      <point x="216" y="393" type="line"/>
      <point x="160" y="393" type="line"/>
      <point x="0" y="395" type="line"/>
    </contour>
  </outline>
</glyph>
<glyph name="uni044D" format="2">
  <advance width="545" height="962"/>
  <unicode hex="044D"/>
  <outline>
    <contour>
      <point x="57" y="393" type="curve"/>
      <point x="32" y="479" type="line"/>
      <point x="93" y="498"/>
      <point x="159" y="511"/>
      <point x="225" y="512" type="curve" smooth="yes"/>
      <point x="411" y="515"/>
      <point x="511" y="448"/>
      <point x="511" y="325" type="curve" smooth="yes"/>
      <point x="511" y="164" type="line" smooth="yes"/>
      <point x="511" y="25"/>
      <point x="396" y="-8"/>
      <point x="223" y="-12" type="curve" smooth="yes"/>
      <point x="156" y="-13"/>
      <point x="89" y="-6"/>
      <point x="28" y="5" type="curve"/>
      <point x="44" y="95" type="line"/>
      <point x="41.0174" y="94.9979"/>
      <point x="128.008" y="84"/>
      <point x="207" y="84" type="curve" smooth="yes"/>
      <point x="322" y="84"/>
      <point x="400" y="113"/>
      <point x="400" y="175" type="curve" smooth="yes"/>
      <point x="400" y="196" type="line"/>
      <point x="117" y="196" type="line"/>
      <point x="86" y="301" type="line"/>
      <point x="400" y="301" type="line"/>
      <point x="400" y="332" type="line" smooth="yes"/>
      <point x="400" y="393"/>
      <point x="317" y="420"/>
      <point x="210" y="416" type="curve" smooth="yes"/>
      <point x="155" y="414"/>
      <point x="102" y="405"/>
    </contour>
  </outline>
</glyph>
<glyph name="uni044E" format="2">
  <advance width="898"/>
  <unicode hex="044E"/>
  <outline>
    <component base="o" xOffset="281"/>
    <component base="dotlessi"/>
    <contour>
      <point x="91" y="296" type="line"/>
      <point x="368" y="296" type="line"/>
      <point x="368" y="205" type="line"/>
      <point x="91" y="205" type="line"/>
    </contour>
  </outline>
</glyph>
<glyph name="uni0452" format="2">
  <advance width="638" height="962"/>
  <unicode hex="0452"/>
  <outline>
    <contour>
      <point x="0" y="641" type="line"/>
      <point x="381" y="641" type="line"/>
      <point x="381" y="550" type="line"/>
      <point x="0" y="550" type="line"/>
    </contour>
    <contour>
      <point x="365" y="510" type="curve" smooth="yes"/>
      <point x="484" y="510"/>
      <point x="607" y="474"/>
      <point x="607" y="345" type="curve" smooth="yes"/>
      <point x="607" y="-62" type="line" smooth="yes"/>
      <point x="607" y="-160"/>
      <point x="514" y="-217"/>
      <point x="377" y="-217" type="curve"/>
      <point x="349" y="-127" type="line"/>
      <point x="440" y="-116"/>
      <point x="495" y="-99"/>
      <point x="495" y="-41" type="curve" smooth="yes"/>
      <point x="495" y="343" type="line" smooth="yes"/>
      <point x="495" y="391"/>
      <point x="442" y="409"/>
      <point x="346" y="409" type="curve" smooth="yes"/>
      <point x="312" y="409"/>
      <point x="205" y="402"/>
      <point x="157" y="386" type="curve"/>
      <point x="157" y="-1" type="line"/>
      <point x="47" y="-1" type="line"/>
      <point x="47" y="700" type="line"/>
      <point x="157" y="700" type="line"/>
      <point x="157" y="477" type="line"/>
      <point x="202" y="494"/>
      <point x="272" y="510"/>
    </contour>
  </outline>
</glyph>
<glyph name="uni0454" format="2">
  <advance width="545"/>
  <unicode hex="0454"/>
  <outline>
    <contour>
      <point x="430" y="196" type="line"/>
      <point x="139" y="196" type="line"/>
      <point x="139" y="175" type="line" smooth="yes"/>
      <point x="139" y="113"/>
      <point x="217" y="84"/>
      <point x="332" y="84" type="curve" smooth="yes"/>
      <point x="410.993" y="84"/>
      <point x="497.983" y="94.997"/>
      <point x="495" y="95" type="curve"/>
      <point x="511" y="5" type="line"/>
      <point x="450" y="-6"/>
      <point x="383" y="-13"/>
      <point x="316" y="-12" type="curve" smooth="yes"/>
      <point x="143" y="-8"/>
      <point x="28" y="25"/>
      <point x="28" y="164" type="curve" smooth="yes"/>
      <point x="28" y="325" type="line" smooth="yes"/>
      <point x="28" y="448"/>
      <point x="128" y="515"/>
      <point x="314" y="512" type="curve" smooth="yes"/>
      <point x="380" y="511"/>
      <point x="446" y="498"/>
      <point x="507" y="479" type="curve"/>
      <point x="482" y="393" type="line"/>
      <point x="437" y="405"/>
      <point x="384" y="414"/>
      <point x="329" y="416" type="curve" smooth="yes"/>
      <point x="222" y="420"/>
      <point x="139" y="393"/>
      <point x="139" y="332" type="curve" smooth="yes"/>
      <point x="139" y="301" type="line"/>
      <point x="456" y="301" type="line"/>
    </contour>
  </outline>
</glyph>
<glyph name="uni045A" format="2">
  <advance width="1114"/>
  <unicode hex="045A"/>
  <outline>
    <contour>
      <point x="858" y="303" type="line" smooth="yes"/>
      <point x="976" y="303"/>
      <point x="1081" y="260"/>
      <point x="1081" y="150" type="curve" smooth="yes"/>
      <point x="1081" y="61"/>
      <point x="996" y="-10"/>
      <point x="818" y="-10" type="curve" smooth="yes"/>
      <point x="725" y="-10"/>
      <point x="510" y="1"/>
      <point x="510" y="1" type="curve"/>
      <point x="510" y="200" type="line"/>
      <point x="142" y="200" type="line"/>
      <point x="142" y="0" type="line"/>
      <point x="31" y="0" type="line"/>
      <point x="31" y="500" type="line"/>
      <point x="142" y="500" type="line"/>
      <point x="142" y="303" type="line"/>
      <point x="510" y="303" type="line"/>
      <point x="510" y="500" type="line"/>
      <point x="621" y="500" type="line"/>
      <point x="621" y="303" type="line"/>
    </contour>
    <contour>
      <point x="822" y="103" type="curve" smooth="yes"/>
      <point x="890" y="103"/>
      <point x="961" y="111"/>
      <point x="961" y="153" type="curve" smooth="yes"/>
      <point x="961" y="186"/>
      <point x="922" y="200"/>
      <point x="860" y="200" type="curve" smooth="yes"/>
      <point x="621" y="200" type="line"/>
      <point x="621" y="105" type="line"/>
      <point x="668" y="104"/>
      <point x="794" y="103"/>
    </contour>
  </outline>
</glyph>
<glyph name="uni0463" format="1">
  <advance width="688" height="962"/>
  <unicode hex="0463"/>
  <outline>
    <contour>
      <point x="427" y="303" type="line" smooth="yes"/>
      <point x="562" y="303"/>
      <point x="653" y="258"/>
      <point x="653" y="151" type="curve" smooth="yes"/>
      <point x="653" y="53"/>
      <point x="573" y="-9"/>
      <point x="394" y="-9" type="curve" smooth="yes"/>
      <point x="301" y="-9"/>
      <point x="76" y="2"/>
      <point x="76" y="2" type="curve"/>
      <point x="76" y="700" type="line"/>
      <point x="187" y="700" type="line"/>
      <point x="187" y="303" type="line"/>
    </contour>
    <contour>
      <point x="400" y="101" type="curve" smooth="yes"/>
      <point x="489" y="101"/>
      <point x="536" y="114"/>
      <point x="536" y="154" type="curve" smooth="yes"/>
      <point x="536" y="187"/>
      <point x="504" y="201"/>
      <point x="431" y="201" type="curve" smooth="yes"/>
      <point x="187" y="201" type="line"/>
      <point x="187" y="106" type="line"/>
      <point x="253" y="103"/>
      <point x="355" y="101"/>
    </contour>
    <contour>
      <point x="1" y="501" type="line"/>
      <point x="411" y="501" type="line"/>
      <point x="411" y="410" type="line"/>
      <point x="1" y="410" type="line"/>
    </contour>
  </outline>
</glyph>
<glyph name="uni046A" format="1">
  <advance width="866" height="962"/>
  <unicode hex="046A"/>
  <outline>
    <contour>
      <point x="580" y="376" type="line" smooth="yes"/>
      <point x="757" y="376"/>
      <point x="826" y="299"/>
      <point x="826" y="183" type="curve" smooth="yes"/>
      <point x="826" y="0" type="line"/>
      <point x="715" y="0" type="line"/>
      <point x="715" y="165" type="line" smooth="yes"/>
      <point x="715" y="258"/>
      <point x="661" y="283"/>
      <point x="561" y="283" type="curve" smooth="yes"/>
      <point x="482" y="283" type="line"/>
      <point x="482" y="0" type="line"/>
      <point x="371" y="0" type="line"/>
      <point x="371" y="283" type="line"/>
      <point x="287" y="283" type="line" smooth="yes"/>
      <point x="193" y="283"/>
      <point x="145" y="257"/>
      <point x="145" y="167" type="curve" smooth="yes"/>
      <point x="145" y="0" type="line"/>
      <point x="35" y="0" type="line"/>
      <point x="35" y="183" type="line" smooth="yes"/>
      <point x="35" y="300"/>
      <point x="108" y="376"/>
      <point x="276" y="376" type="curve" smooth="yes"/>
      <point x="349" y="376" type="line"/>
      <point x="74" y="700" type="line"/>
      <point x="784" y="700" type="line"/>
      <point x="511" y="376" type="line"/>
    </contour>
    <contour>
      <point x="430" y="433" type="line"/>
      <point x="574" y="609" type="line"/>
      <point x="285" y="609" type="line"/>
    </contour>
  </outline>
</glyph>
<glyph name="uni0474" format="2">
  <advance width="776" height="962"/>
  <unicode hex="0474"/>
  <outline>
    <contour>
      <point x="706" y="725" type="curve"/>
      <point x="775" y="665" type="line"/>
      <point x="723" y="646"/>
      <point x="711" y="625"/>
      <point x="683" y="560" type="curve" smooth="yes"/>
      <point x="439" y="0" type="line"/>
      <point x="310" y="0" type="line"/>
      <point x="23" y="700" type="line"/>
      <point x="147" y="700" type="line"/>
      <point x="377" y="131" type="line"/>
      <point x="552" y="551" type="line" smooth="yes"/>
      <point x="598" y="661"/>
      <point x="628" y="699"/>
    </contour>
  </outline>
</glyph>
<glyph name="uni0490" format="1">
  <advance width="557" height="962"/>
  <unicode hex="0490"/>
  <outline>
    <component base="Gamma"/>
    <contour>
      <point x="444" y="812" type="line"/>
      <point x="543" y="812" type="line"/>
      <point x="543" y="644" type="line"/>
      <point x="438" y="644" type="line"/>
      <point x="438" y="700" type="line"/>
    </contour>
  </outline>
</glyph>
<glyph name="uni0494" format="2">
  <advance width="650" height="962"/>
  <unicode hex="0494"/>
  <outline>
    <component base="Gamma"/>
    <contour>
      <point x="374" y="508" type="curve" smooth="yes"/>
      <point x="513" y="508"/>
      <point x="615" y="472"/>
      <point x="615" y="343" type="curve" smooth="yes"/>
      <point x="615" y="129" type="line" smooth="yes"/>
      <point x="615" y="35"/>
      <point x="546" y="-14"/>
      <point x="416" y="-16" type="curve"/>
      <point x="382" y="72" type="line"/>
      <point x="434" y="72"/>
      <point x="503" y="84"/>
      <point x="503" y="139" type="curve" smooth="yes"/>
      <point x="503" y="341" type="line" smooth="yes"/>
      <point x="503" y="379"/>
      <point x="467" y="407"/>
      <point x="382" y="407" type="curve" smooth="yes"/>
      <point x="341" y="407"/>
      <point x="210" y="400"/>
      <point x="153" y="384" type="curve"/>
      <point x="153" y="475" type="line"/>
      <point x="184" y="487"/>
      <point x="290" y="508"/>
    </contour>
  </outline>
</glyph>
<glyph name="uni0495" format="1">
  <advance width="606" height="962"/>
  <unicode hex="0495"/>
  <outline>
    <component base="uni0433"/>
    <contour>
      <point x="360" y="304" type="curve" smooth="yes"/>
      <point x="479" y="304"/>
      <point x="572" y="268"/>
      <point x="572" y="139" type="curve" smooth="yes"/>
      <point x="572" y="-65" type="line" smooth="yes"/>
      <point x="572" y="-149"/>
      <point x="535" y="-218"/>
      <point x="382" y="-220" type="curve"/>
      <point x="350" y="-132" type="line"/>
      <point x="419" y="-132"/>
      <point x="461" y="-120"/>
      <point x="461" y="-75" type="curve" smooth="yes"/>
      <point x="461" y="137" type="line" smooth="yes"/>
      <point x="461" y="175"/>
      <point x="432" y="203"/>
      <point x="347" y="203" type="curve" smooth="yes"/>
      <point x="313" y="203"/>
      <point x="192" y="196"/>
      <point x="142" y="180" type="curve"/>
      <point x="142" y="271" type="line"/>
      <point x="169" y="283"/>
      <point x="267" y="304"/>
    </contour>
  </outline>
</glyph>
<glyph name="uni0497" format="1">
  <advance width="802" height="962"/>
  <unicode hex="0497"/>
  <outline>
    <component base="uni0436"/>
    <contour>
      <point x="663" y="110" type="line"/>
      <point x="789" y="110" type="line"/>
      <point x="789" y="-125" type="line"/>
      <point x="691" y="-125" type="line"/>
      <point x="679" y="0" type="line"/>
      <point x="663" y="0" type="line"/>
    </contour>
  </outline>
</glyph>
<glyph name="uni049B" format="2">
  <advance width="685"/>
  <unicode hex="049B"/>
  <outline>
    <contour>
      <point x="655" y="0" type="line"/>
      <point x="476" y="0" type="line"/>
      <point x="226" y="242" type="line"/>
      <point x="151" y="196" type="line"/>
      <point x="151" y="0" type="line"/>
      <point x="40" y="0" type="line"/>
      <point x="40" y="512" type="line"/>
      <point x="151" y="500" type="line"/>
      <point x="151" y="316" type="line"/>
      <point x="448" y="501" type="line"/>
      <point x="640" y="501" type="line"/>
      <point x="320" y="301" type="line"/>
    </contour>
    <contour>
      <point x="517" y="110" type="line"/>
      <point x="665" y="110" type="line"/>
      <point x="665" y="-125" type="line"/>
      <point x="566" y="-125" type="line"/>
      <point x="554" y="0" type="line"/>
      <point x="517" y="0" type="line"/>
    </contour>
  </outline>
</glyph>
<glyph name="uni049C" format="1">
  <advance width="759" height="962"/>
  <unicode hex="049C"/>
  <outline>
    <contour>
      <point x="739" y="0" type="line"/>
      <point x="601" y="0" type="line"/>
      <point x="361" y="336" type="line"/>
      <point x="296" y="336" type="line"/>
      <point x="296" y="251" type="line"/>
      <point x="227" y="251" type="line"/>
      <point x="227" y="336" type="line"/>
      <point x="152" y="336" type="line"/>
      <point x="152" y="0" type="line"/>
      <point x="41" y="0" type="line"/>
      <point x="41" y="700" type="line"/>
      <point x="152" y="700" type="line"/>
      <point x="152" y="427" type="line"/>
      <point x="227" y="427" type="line"/>
      <point x="227" y="518" type="line"/>
      <point x="296" y="518" type="line"/>
      <point x="296" y="427" type="line"/>
      <point x="358" y="427" type="line"/>
      <point x="551" y="702" type="line"/>
      <point x="687" y="702" type="line"/>
      <point x="465" y="391" type="line"/>
    </contour>
  </outline>
</glyph>
<glyph name="uni04A1" format="1">
  <advance width="812" height="962"/>
  <unicode hex="04A1"/>
  <outline>
    <contour>
      <point x="0" y="500" type="line"/>
      <point x="242" y="500" type="line"/>
      <point x="242" y="393" type="line"/>
      <point x="180" y="393" type="line"/>
      <point x="0" y="395" type="line"/>
    </contour>
    <contour>
      <point x="612" y="158" type="line" smooth="yes"/>
      <point x="666" y="106"/>
      <point x="728" y="98"/>
      <point x="785" y="98" type="curve" smooth="yes"/>
      <point x="789" y="98" type="line"/>
      <point x="789" y="0" type="line"/>
      <point x="735" y="0" type="line" smooth="yes"/>
      <point x="621" y="0"/>
      <point x="546" y="67"/>
      <point x="487" y="125" type="curve" smooth="yes"/>
      <point x="366" y="242" type="line"/>
      <point x="291" y="196" type="line"/>
      <point x="291" y="0" type="line"/>
      <point x="180" y="0" type="line"/>
      <point x="180" y="501" type="line"/>
      <point x="291" y="500" type="line"/>
      <point x="291" y="323" type="line"/>
      <point x="578" y="500" type="line"/>
      <point x="786" y="500" type="line"/>
      <point x="462" y="301" type="line"/>
    </contour>
  </outline>
</glyph>
<glyph name="uni04A2" format="2">
  <advance width="811"/>
  <unicode hex="04A2"/>
  <outline>
    <contour>
      <point x="626" y="110" type="line"/>
      <point x="785" y="110" type="line"/>
      <point x="785" y="-125" type="line"/>
      <point x="687" y="-125" type="line"/>
      <point x="675" y="0" type="line"/>
      <point x="626" y="0" type="line"/>
    </contour>
    <contour>
      <point x="567" y="414" type="line"/>
      <point x="567" y="700" type="line"/>
      <point x="678" y="700" type="line"/>
      <point x="678" y="0" type="line"/>
      <point x="567" y="0" type="line"/>
      <point x="567" y="309" type="line"/>
      <point x="152" y="309" type="line"/>
      <point x="152" y="0" type="line"/>
      <point x="41" y="0" type="line"/>
      <point x="41" y="700" type="line"/>
      <point x="152" y="700" type="line"/>
      <point x="152" y="414" type="line"/>
    </contour>
  </outline>
</glyph>
<glyph name="uni04A5" format="2">
  <advance width="725" height="962"/>
  <unicode hex="04A5"/>
  <outline>
    <component base="uni043D"/>
    <contour>
      <point x="533" y="500" type="line"/>
      <point x="717" y="500" type="line"/>
      <point x="717" y="395" type="line"/>
      <point x="586" y="393" type="line"/>
      <point x="533" y="393" type="line"/>
    </contour>
  </outline>
</glyph>
<glyph name="uni04B3" format="2">
  <advance width="744"/>
  <unicode hex="04B3"/>
  <outline>
    <component base="x"/>
    <contour>
      <point x="586" y="110" type="line"/>
      <point x="723" y="110" type="line"/>
      <point x="723" y="-125" type="line"/>
      <point x="626" y="-125" type="line"/>
      <point x="612" y="0" type="line"/>
      <point x="586" y="0" type="line"/>
    </contour>
  </outline>
</glyph>
<glyph name="uni04B6" format="2">
  <advance width="826"/>
  <unicode hex="04B6"/>
  <outline>
    <component base="uni0427"/>
    <contour>
      <point x="635" y="110" type="line"/>
      <point x="807" y="110" type="line"/>
      <point x="807" y="-125" type="line"/>
      <point x="708" y="-125" type="line"/>
      <point x="695" y="0" type="line"/>
      <point x="635" y="0" type="line"/>
    </contour>
  </outline>
  <guideline angle="90" x="134.45" y="0"/>
  <guideline angle="0" x="0" y="567"/>
</glyph>
<glyph name="uni04B8" format="2">
  <advance width="711"/>
  <unicode hex="04B8"/>
  <outline>
    <component base="uni0427"/>
    <contour>
      <point x="298" y="404" type="line"/>
      <point x="403" y="404" type="line"/>
      <point x="403" y="170" type="line"/>
      <point x="298" y="170" type="line"/>
    </contour>
  </outline>
  <guideline angle="90" x="134.45" y="0"/>
  <guideline angle="0" x="0" y="567"/>
</glyph>
<glyph name="uni04BA" format="2">
  <advance width="749"/>
  <unicode hex="04BA"/>
  <outline>
    <contour>
      <point x="153" y="700" type="line"/>
      <point x="153" y="411" type="line"/>
      <point x="209" y="437"/>
      <point x="301" y="454"/>
      <point x="389" y="454" type="curve" smooth="yes"/>
      <point x="589" y="454"/>
      <point x="711" y="381"/>
      <point x="711" y="245" type="curve" smooth="yes"/>
      <point x="711" y="-1" type="line"/>
      <point x="600" y="-1" type="line"/>
      <point x="600" y="236" type="line" smooth="yes"/>
      <point x="600" y="325"/>
      <point x="510" y="358"/>
      <point x="367" y="358" type="curve" smooth="yes"/>
      <point x="282" y="358"/>
      <point x="153" y="330"/>
      <point x="153" y="273" type="curve" smooth="yes"/>
      <point x="153" y="-1" type="line"/>
      <point x="42" y="-1" type="line"/>
      <point x="42" y="700" type="line"/>
    </contour>
  </outline>
</glyph>
<glyph name="uni04BB" format="2">
  <advance width="629"/>
  <unicode hex="04BB"/>
  <outline>
    <contour>
      <point x="38" y="0" type="line"/>
      <point x="38" y="501" type="line"/>
      <point x="149" y="501" type="line"/>
      <point x="149" y="360" type="line"/>
      <point x="182" y="377"/>
      <point x="251" y="396"/>
      <point x="336" y="396" type="curve" smooth="yes"/>
      <point x="449" y="396"/>
      <point x="593" y="359"/>
      <point x="593" y="230" type="curve" smooth="yes"/>
      <point x="593" y="0" type="line"/>
      <point x="482" y="0" type="line"/>
      <point x="482" y="219" type="line" smooth="yes"/>
      <point x="482" y="277"/>
      <point x="409" y="296"/>
      <point x="317" y="296" type="curve" smooth="yes"/>
      <point x="224" y="296"/>
      <point x="149" y="260"/>
      <point x="149" y="214" type="curve" smooth="yes"/>
      <point x="149" y="0" type="line"/>
    </contour>
  </outline>
</glyph>
<glyph name="uni04CB" format="1">
  <advance width="711" height="962"/>
  <unicode hex="04CB"/>
  <outline>
    <component base="uni0427"/>
    <contour>
      <point x="456" y="110" type="line"/>
      <point x="635" y="110" type="line"/>
      <point x="635" y="0" type="line"/>
      <point x="568" y="0" type="line"/>
      <point x="554" y="-125" type="line"/>
      <point x="456" y="-125" type="line"/>
    </contour>
  </outline>
</glyph>
<glyph name="uni04F6" format="2">
  <advance width="569"/>
  <unicode hex="04F6"/>
  <outline>
    <component base="Gamma"/>
    <contour>
      <point x="99" y="110" type="line"/>
      <point x="263" y="110" type="line"/>
      <point x="263" y="-125" type="line"/>
      <point x="168" y="-125" type="line"/>
      <point x="149" y="0" type="line"/>
      <point x="99" y="0" type="line"/>
    </contour>
  </outline>
</glyph>
<glyph name="emdash" format="2">
	<advance width="1042"/>
	<unicode hex="2014"/>
	<outline>
		<contour>
			<point x="35" y="307" type="line"/>
			<point x="35" y="414" type="line"/>
			<point x="1007" y="414" type="line"/>
			<point x="1007" y="307" type="line"/>
		</contour>
	</outline>
</glyph>
<glyph name="quotesinglbase" format="2">
  <advance width="190"/>
  <unicode hex="201A"/>
  <outline>
    <contour>
      <point x="62" y="-73" type="line"/>
      <point x="73" y="-55"/>
      <point x="78" y="-34"/>
      <point x="79" y="-15" type="curve"/>
      <point x="54" y="-9"/>
      <point x="35" y="15"/>
      <point x="35" y="43" type="curve" smooth="yes"/>
      <point x="35" y="77"/>
      <point x="61" y="103"/>
      <point x="95" y="103" type="curve" smooth="yes"/>
      <point x="128" y="103"/>
      <point x="154" y="77"/>
      <point x="154" y="43" type="curve"/>
      <point x="155" y="-48"/>
      <point x="85" y="-89"/>
      <point x="86" y="-89" type="curve"/>
    </contour>
  </outline>
</glyph>
<glyph name="quotedblbase" format="1">
  <advance width="370" height="962"/>
  <unicode hex="201E"/>
  <outline>
    <contour>
      <point x="61" y="-73" type="line"/>
      <point x="72" y="-55"/>
      <point x="78" y="-34"/>
      <point x="80" y="-15" type="curve"/>
      <point x="54" y="-9"/>
      <point x="35" y="15"/>
      <point x="35" y="43" type="curve" smooth="yes"/>
      <point x="35" y="77"/>
      <point x="61" y="103"/>
      <point x="95" y="103" type="curve" smooth="yes"/>
      <point x="127" y="103"/>
      <point x="154" y="77"/>
      <point x="154" y="43" type="curve"/>
      <point x="155" y="-48"/>
      <point x="85" y="-89"/>
      <point x="86" y="-89" type="curve"/>
    </contour>
    <contour>
      <point x="243" y="-73" type="line"/>
      <point x="252" y="-55"/>
      <point x="257" y="-34"/>
      <point x="259" y="-15" type="curve"/>
      <point x="235" y="-9"/>
      <point x="215" y="15"/>
      <point x="215" y="43" type="curve" smooth="yes"/>
      <point x="215" y="77"/>
      <point x="240" y="103"/>
      <point x="274" y="103" type="curve" smooth="yes"/>
      <point x="308" y="103"/>
      <point x="335" y="77"/>
      <point x="335" y="43" type="curve"/>
      <point x="337" y="-48"/>
      <point x="266" y="-89"/>
      <point x="268" y="-89" type="curve"/>
    </contour>
  </outline>
</glyph>
<glyph name="perthousand" format="2">
  <advance width="1610" height="962"/>
  <unicode hex="2030"/>
  <outline>
    <component base="percent"/>
    <contour>
      <point x="1338.41" y="278" type="curve" smooth="yes"/>
      <point x="1458.41" y="278"/>
      <point x="1555.41" y="213"/>
      <point x="1555.41" y="132" type="curve" smooth="yes"/>
      <point x="1555.41" y="51"/>
      <point x="1458.41" y="-14"/>
      <point x="1338.41" y="-14" type="curve" smooth="yes"/>
      <point x="1216.41" y="-14"/>
      <point x="1117.41" y="51"/>
      <point x="1117.41" y="132" type="curve" smooth="yes"/>
      <point x="1117.41" y="213"/>
      <point x="1216.41" y="278"/>
    </contour>
    <contour>
      <point x="1338.41" y="185" type="curve" smooth="yes"/>
      <point x="1274.41" y="185"/>
      <point x="1240.41" y="159"/>
      <point x="1240.41" y="132" type="curve" smooth="yes"/>
      <point x="1240.41" y="103"/>
      <point x="1274.41" y="79"/>
      <point x="1338.41" y="79" type="curve" smooth="yes"/>
      <point x="1398.41" y="79"/>
      <point x="1434.41" y="103"/>
      <point x="1434.41" y="132" type="curve" smooth="yes"/>
      <point x="1434.41" y="159"/>
      <point x="1398.41" y="185"/>
    </contour>
  </outline>
</glyph>
<glyph name="guilsinglright" format="2">
  <advance width="453" height="962"/>
  <unicode hex="203A"/>
  <outline>
    <contour>
      <point x="246" y="268" type="line"/>
      <point x="45.4552" y="395.3" type="line"/>
      <point x="101" y="481" type="line"/>
      <point x="418" y="268" type="line"/>
      <point x="106" y="58" type="line"/>
      <point x="47.0931" y="136.519" type="line"/>
    </contour>
  </outline>
</glyph>
<glyph name="fraction" format="2">
  <advance width="722"/>
  <unicode hex="2044"/>
  <outline>
    <contour>
      <point x="42" y="-115" type="line"/>
      <point x="534" y="819" type="line"/>
      <point x="683" y="819" type="line"/>
      <point x="191" y="-115" type="line"/>
    </contour>
  </outline>
</glyph>
<glyph name="Y_upper_alt" format="2">
  <advance width="726" height="962"/>
  <unicode hex="9997"/>
  <outline>
    <contour>
      <point x="414" y="316" type="line"/>
      <point x="414" y="0" type="line"/>
      <point x="303" y="0" type="line"/>
      <point x="303" y="316" type="line"/>
      <point x="5" y="700" type="line"/>
      <point x="137" y="700" type="line"/>
      <point x="359" y="411" type="line"/>
      <point x="582" y="700" type="line"/>
      <point x="715" y="700" type="line"/>
    </contour>
  </outline>
</glyph>
<glyph name="y_lower_alt" format="1">
  <advance width="714" height="962"/>
  <unicode hex="9998"/>
  <outline>
    <contour>
      <point x="157" y="-209" type="line"/>
      <point x="297" y="30" type="line"/>
      <point x="13" y="500" type="line"/>
      <point x="141" y="500" type="line"/>
      <point x="358" y="138" type="line"/>
      <point x="565" y="500" type="line"/>
      <point x="696" y="500" type="line"/>
      <point x="286" y="-209" type="line"/>
    </contour>
  </outline>
</glyph>
<glyph name="ff" format="1">
  <advance width="737" height="962"/>
  <unicode hex="FB00"/>
  <outline>
    <contour>
      <point x="691" y="590" type="line"/>
      <point x="673" y="595"/>
      <point x="618" y="597"/>
      <point x="604" y="597" type="curve" smooth="yes"/>
      <point x="535" y="597"/>
      <point x="499" y="583"/>
      <point x="499" y="540" type="curve" smooth="yes"/>
      <point x="499" y="501" type="line"/>
      <point x="690" y="501" type="line"/>
      <point x="662" y="397" type="line"/>
      <point x="500" y="397" type="line"/>
      <point x="500" y="0" type="line"/>
      <point x="388" y="0" type="line"/>
      <point x="388" y="502" type="line" smooth="yes"/>
      <point x="388" y="530"/>
      <point x="386" y="565"/>
      <point x="400" y="593" type="curve"/>
      <point x="384" y="596"/>
      <point x="322" y="602"/>
      <point x="254" y="602" type="curve" smooth="yes"/>
      <point x="200" y="602"/>
      <point x="150" y="589"/>
      <point x="150" y="536" type="curve" smooth="yes"/>
      <point x="150" y="501" type="line"/>
      <point x="342" y="501" type="line"/>
      <point x="314" y="397" type="line"/>
      <point x="150" y="397" type="line"/>
      <point x="150" y="0" type="line"/>
      <point x="39" y="0" type="line"/>
      <point x="39" y="532" type="line" smooth="yes"/>
      <point x="39" y="671"/>
      <point x="119" y="707"/>
      <point x="293" y="707" type="curve" smooth="yes"/>
      <point x="342" y="707"/>
      <point x="427" y="699"/>
      <point x="487" y="684" type="curve"/>
      <point x="525" y="698"/>
      <point x="570" y="704"/>
      <point x="607" y="704" type="curve" smooth="yes"/>
      <point x="645" y="704"/>
      <point x="685" y="699"/>
      <point x="723" y="692" type="curve"/>
    </contour>
  </outline>
</glyph>
<glyph name="fi" format="2">
  <advance width="540"/>
  <unicode hex="FB01"/>
  <outline>
    <contour>
      <point x="499" y="569" type="line"/>
      <point x="425" y="600"/>
      <point x="352" y="606"/>
      <point x="275" y="606" type="curve" smooth="yes"/>
      <point x="192" y="606"/>
      <point x="154" y="581"/>
      <point x="154" y="523" type="curve" smooth="yes"/>
      <point x="154" y="501" type="line"/>
      <point x="343" y="501" type="line"/>
      <point x="317" y="397" type="line"/>
      <point x="154" y="397" type="line"/>
      <point x="154" y="0" type="line"/>
      <point x="41" y="0" type="line"/>
      <point x="41" y="540" type="line" smooth="yes"/>
      <point x="41" y="659"/>
      <point x="147" y="710"/>
      <point x="276" y="710" type="curve" smooth="yes"/>
      <point x="370" y="710"/>
      <point x="443" y="694"/>
      <point x="499" y="666" type="curve"/>
    </contour>
    <contour>
      <point x="499" y="0" type="line"/>
      <point x="388" y="0" type="line"/>
      <point x="388" y="501" type="line"/>
      <point x="499" y="501" type="line"/>
    </contour>
  </outline>
</glyph>
<glyph name="fl" format="2">
  <advance width="532"/>
  <unicode hex="FB02"/>
  <outline>
    <contour>
      <point x="381" y="599" type="line"/>
      <point x="354" y="609"/>
      <point x="309" y="611"/>
      <point x="282" y="611" type="curve" smooth="yes"/>
      <point x="214" y="611"/>
      <point x="150" y="604"/>
      <point x="150" y="550" type="curve" smooth="yes"/>
      <point x="150" y="501" type="line"/>
      <point x="340" y="501" type="line"/>
      <point x="314" y="397" type="line"/>
      <point x="150" y="397" type="line"/>
      <point x="150" y="0" type="line"/>
      <point x="39" y="0" type="line"/>
      <point x="39" y="528" type="line" smooth="yes"/>
      <point x="39" y="647"/>
      <point x="94" y="710"/>
      <point x="288" y="710" type="curve" smooth="yes"/>
      <point x="354" y="710"/>
      <point x="425" y="701"/>
      <point x="492" y="687" type="curve"/>
      <point x="492" y="0" type="line"/>
      <point x="381" y="0" type="line"/>
    </contour>
  </outline>
</glyph>
<glyph name="descendercomb" format="1">
  <advance width="250" height="962"/>
  <outline>
    <contour>
      <point x="77" y="7" type="line"/>
      <point x="167" y="7" type="line"/>
      <point x="167" y="3" type="line"/>
      <point x="223" y="-87" type="line" smooth="yes"/>
      <point x="277" y="-174"/>
      <point x="203" y="-254"/>
      <point x="112" y="-225" type="curve" smooth="yes"/>
      <point x="7" y="-191" type="line"/>
      <point x="32" y="-119" type="line"/>
      <point x="135" y="-155" type="line" smooth="yes"/>
      <point x="160" y="-164"/>
      <point x="170" y="-142"/>
      <point x="159" y="-124" type="curve" smooth="yes"/>
      <point x="77" y="2" type="line"/>
    </contour>
  </outline>
</glyph>
<glyph name="lambda_lambda" format="2">
  <advance width="1263" height="962"/>
  <outline>
    <component base="lambda" xOffset="521.25"/>
    <contour>
      <point x="667" y="0" type="line"/>
      <point x="539" y="-1" type="line"/>
      <point x="370" y="396" type="line"/>
      <point x="370" y="396"/>
      <point x="319" y="394"/>
      <point x="301" y="353" type="curve" smooth="yes"/>
      <point x="148" y="-1" type="line"/>
      <point x="25" y="-1" type="line"/>
      <point x="183" y="355" type="line" smooth="yes"/>
      <point x="222" y="443"/>
      <point x="258" y="470"/>
      <point x="329" y="489" type="curve"/>
      <point x="298" y="561" type="line" smooth="yes"/>
      <point x="276" y="611"/>
      <point x="195" y="616"/>
      <point x="130" y="616" type="curve"/>
      <point x="164" y="702" type="line"/>
      <point x="364" y="702"/>
      <point x="387" y="620"/>
      <point x="415" y="556" type="curve"/>
    </contour>
  </outline>
</glyph>
